<?xml version="1.0" encoding="utf-8"?>
<!-- Generator: Adobe Illustrator 27.0.0, SVG Export Plug-In . SVG Version: 6.00 Build 0)  -->
<svg version="1.1" id="Layer_1" xmlns="http://www.w3.org/2000/svg" xmlns:xlink="http://www.w3.org/1999/xlink" x="0px" y="0px"
	 viewBox="0 0 305.3 75.5" style="enable-background:new 0 0 305.3 75.5;" xml:space="preserve">
<style type="text/css">
	.st0{fill:#E2E2E2;}
	.st1{fill:#9E9E9E;}
</style>
<g id="logo">
	<polygon class="st0" points="0,0 0,47.2 28.3,75.5 42.5,47.2 56.7,47.2 56.7,0 	"/>
	<polygon class="st1" points="28.3,75.5 56.7,47.2 28.3,18.9 	"/>
	<path class="st1" d="M82.8,37.6l1.9-7.3H94l1.8,7.3h7.2L94.1,4.8h-9L76,37.6H82.8z M92.5,25.3H86l3.1-14.2h0.1L92.5,25.3z"/>
	<path class="st1" d="M115.7,23.2h4c3.5,0,4.5,1.8,4.5,4.7c0,4.6-3.3,4.6-4.7,4.6h-3.8L115.7,23.2L115.7,23.2z M115.7,9.8h4.2
		c2.2,0,3.9,1.7,4,3.9c0,0.1,0,0.2,0,0.3c0,3.2-2.1,4.2-3.6,4.2h-4.6L115.7,9.8L115.7,9.8z M121,37.6c2.9,0,10.1-0.4,10.1-8.7
		c0-4.5-1.3-7.6-6.1-8.3v-0.1c3.7-0.7,5.6-3.5,5.6-7.2c0-7-4.3-8.5-9.5-8.5h-12.2v32.8L121,37.6L121,37.6z"/>
	<polygon class="st1" points="145.6,37.6 145.6,13.6 145.6,13.6 154.6,37.6 163.6,37.6 163.6,4.8 157.2,4.8 157.2,27.5 157.1,27.5 
		148.4,4.8 139.2,4.8 139.2,37.6 	"/>
	<polygon class="st1" points="174.4,23.1 178.8,18.7 174.4,14.3 170,18.7 	"/>
	<path class="st1" d="M187.8,37.6l1.9-7.3h9.4l1.8,7.3h7.2l-8.9-32.8h-9L181,37.6H187.8z M197.5,25.3H191l3.1-14.2h0.1L197.5,25.3z"
		/>
	<polygon class="st1" points="220.4,37.6 220.4,12.3 220.4,12.3 226.4,37.6 233,37.6 239.3,12.3 239.4,12.3 239.4,37.6 246.1,37.6 
		246.1,4.8 235.4,4.8 229.9,27.1 229.8,27.1 224.7,4.8 213.7,4.8 213.7,37.6 	"/>
	<path class="st1" d="M261.9,9.8h3c2.2,0,3.5,1.2,3.5,4.3c0,2.1-0.8,4.8-3.5,4.8h-3V9.8z M261.9,24h1.8c5.3,0,4.9,3.3,4.9,7.2
		c0,2.1-0.2,4.4,0.7,6.4h6.7c-0.6-1.4-0.8-7.5-0.8-9.6c0-5.9-4.5-6.3-6-6.5v-0.1c4.5-0.7,6.1-3.9,6.1-8c0-5.6-3-8.6-7.7-8.6h-12.7
		v32.8h6.9L261.9,24L261.9,24z"/>
	<path class="st1" d="M294,33.2c-3.9,0-4.4-3.6-4.4-12s0.5-12,4.4-12s4.4,3.6,4.4,12S297.8,33.2,294,33.2z M294,38.1
		c11.3,0,11.3-8.4,11.3-16.9c0-8.7,0-16.9-11.3-16.9s-11.3,8.3-11.3,16.9C282.7,29.8,282.7,38.2,294,38.1L294,38.1z"/>
</g>
</svg>
