<?xml version="1.0" encoding="utf-8"?>
<!-- Generator: Adobe Illustrator 27.0.0, SVG Export Plug-In . SVG Version: 6.00 Build 0)  -->
<svg version="1.1" id="Layer_1" xmlns="http://www.w3.org/2000/svg" xmlns:xlink="http://www.w3.org/1999/xlink" x="0px" y="0px"
	 viewBox="0 0 623.9 113.8" style="enable-background:new 0 0 623.9 113.8;" xml:space="preserve">
<style type="text/css">
	.st0{fill:#9E9E9E;}
	.st1{fill:#E2E2E2;}
</style>
<g>
	<path class="st0" d="M182.2,44.7c-3.4-1.9-7-2.9-10.9-2.9c-3.8,0-7.2,0.9-10.4,2.8c-1.8,1-3.4,2.3-4.8,3.8V26.7h-12v65.1h12V85
		c1.9,2.1,3.2,3,4.8,4c3.2,2,6.7,2.9,10.4,2.9c4,0,7.7-1,11.1-2.9c3.4-1.9,6.1-4.8,8.1-8.5c2-3.8,3-8.4,3-13.9c0-5.3-1-9.8-3.1-13.5
		C188.3,49.4,185.5,46.6,182.2,44.7z M177.4,77.8c-2.5,2.4-5.4,3.6-8.9,3.6c-2.2,0-4.2-0.5-6.1-1.6c-1.9-1-3.4-2.5-4.6-4.3
		c-1.2-1.8-1.8-3.9-1.8-6.3c0-0.1,0-0.1,0-0.2c0-0.1,0-0.2,0-0.2V64c0-2.4,0.6-4.5,1.8-6.3c1.2-1.8,2.7-3.2,4.6-4.2
		c1.9-1,3.9-1.5,6-1.5c3.5,0,6.5,1.2,8.9,3.5c2.4,2.3,3.7,6.1,3.7,11.1C181.1,71.7,179.9,75.4,177.4,77.8z"/>
	<path class="st0" d="M234.6,67.5c0,2.2-0.5,4.4-1.4,6.6c-1,2.2-2.3,3.9-4,5.3c-1.7,1.4-3.8,2.1-6.2,2.1c-2.5,0-4.5-0.6-5.8-1.7
		c-1.4-1.1-2.3-2.6-2.8-4.4c-0.5-1.8-0.8-3.8-0.8-6c0-0.9,0-1.8,0-2.8c0-1,0-2,0-3.1V42.6h-12v22.7c0,1.2,0,2.5,0,3.7
		c0,1.2,0,2.4,0,3.5c0,2.3,0.3,4.5,0.8,6.8c0.5,2.3,1.4,4.4,2.7,6.2c1.3,1.9,3.1,3.4,5.3,4.5c2.3,1.2,5.1,1.7,8.5,1.7
		c3.1,0,5.8-0.6,8.3-1.7s4.5-2.7,6.3-4.7c0.4-0.5,0.8-1,1.2-1.6v8h12V42.6h-12V67.5z"/>
	<path class="st0" d="M267.1,23.4c-1.4-1-3.1-1.5-5-1.5c-1.9,0-3.6,0.5-5.1,1.5c-1.4,1-2.2,2.5-2.2,4.3c0,1.9,0.7,3.3,2.2,4.4
		c1.4,1,3.1,1.6,5.1,1.6c1.9,0,3.6-0.5,5-1.6c1.4-1,2.1-2.5,2.1-4.4C269.2,25.9,268.5,24.4,267.1,23.4z"/>
	<rect x="256.1" y="42.6" class="st0" width="11.8" height="49.2"/>
	<path class="st0" d="M297,26.7h-12v7.7c0,2-0.1,3.5-0.2,4.6c-0.1,1.1-0.4,1.9-0.8,2.4c-0.4,0.5-1.1,0.8-2,1
		c-0.9,0.1-2.2,0.2-3.7,0.2h-4.6v9.6H285v22.2c0,0.7,0,1.4,0,2.1c0,0.7,0,1.4,0,2c0,2.9,0.5,5.2,1.4,7c0.9,1.8,2.1,3.1,3.6,4
		c1.5,0.9,3.1,1.5,4.9,1.9c2.8,0.6,15.2,0.5,16.5,0.5c0-4.5,0-4.4,0-9.5c-1.4,0-6,0-9.7,0c-2,0-3.3-0.7-3.9-2
		c-0.5-1.4-0.8-3.2-0.8-5.4c0-0.5,0-1.1,0-1.6s0-1.1,0-1.7V52.2h14.4v-9.6H297V26.7z"/>
	<path class="st0" d="M354.6,45c-3.8-2.1-8.3-3.2-13.5-3.2c-5.1,0-9.6,1.1-13.5,3.2c-3.9,2.1-7,5-9.2,8.8c-2.2,3.8-3.3,8.1-3.3,13.1
		c0,4.9,1.1,9.2,3.3,13c2.2,3.8,5.2,6.7,9.1,8.9c3.9,2.1,8.4,3.2,13.6,3.2c3.8,0,7.2-0.5,10.2-1.4c3-0.9,5.5-2.2,7.6-3.7
		c2.1-1.6,3.7-3.3,4.9-5.2c1.2-1.9,1.8-3.9,2-5.9h-11.9c-0.1,0.8-0.4,1.6-0.9,2.4c-0.5,0.8-1.2,1.5-2.2,2.2c-1,0.7-2.3,1.2-3.8,1.6
		c-1.5,0.4-3.4,0.6-5.5,0.6c-3.1,0-5.8-0.6-7.9-1.9c-2.2-1.3-3.8-3.1-4.9-5.5c-0.6-1.3-1.1-2.8-1.3-4.5h39.1
		c0.1-0.3,0.1-0.9,0.1-1.6c0-0.7,0-1.4,0-2c0-5-1-9.4-3.1-13.2C361.3,50,358.4,47.1,354.6,45z M328.6,58.3c1.2-2.3,2.8-4.1,5-5.3
		c2.1-1.2,4.7-1.8,7.6-1.8c2.9,0,5.4,0.6,7.3,1.7c1.9,1.1,3.3,2.6,4.3,4.5c0.8,1.5,1.2,3.1,1.3,4.8h-26.8
		C327.6,60.7,328,59.5,328.6,58.3z"/>
	<path class="st0" d="M412.6,44.1c-2.7-1.5-5.9-2.3-9.8-2.3c-3.8,0-7.2,0.9-10.3,2.7c-2.4,1.4-4.4,3.2-6.1,5.5v-7.3h-12v49.2h12
		V65.1c0-2.5,0.5-4.7,1.5-6.7c1-1.9,2.4-3.4,4.2-4.5c1.8-1.1,3.8-1.7,6.1-1.7c2.6,0,4.7,0.5,6.2,1.5c1.5,1,2.6,2.4,3.2,4.1
		c0.6,1.7,0.9,3.7,0.9,5.9c0,0.8,0,1.6,0,2.5c0,0.9,0,2,0,3.2v22.3h12V70.6c0-1.8,0-3.5,0-5.4c0-1.8,0-3.5,0-4.9c0-3.8-0.7-7-2-9.8
		C417.3,47.7,415.3,45.6,412.6,44.1z"/>
	<polygon class="st0" points="459.1,42.6 441.7,57.9 441.7,26.7 430.4,26.7 430.4,91.8 441.7,91.8 441.7,71.3 446.4,67.1 462,91.8 
		474.7,91.8 454,60.4 474,42.6 	"/>
	<path class="st0" d="M522.3,87.1c-0.2-0.9-0.4-1.9-0.5-3c-0.1-1.1-0.1-2.2-0.1-3.4V62.5c0-0.6,0-1.3,0-1.9c0-0.6,0-1.3,0-1.9
		c0-3.8-1-6.9-3.1-9.4c-2.1-2.5-4.9-4.4-8.3-5.6c-3.5-1.2-7.3-1.9-11.4-1.9c-4.5,0-8.4,0.7-12,2c-3.5,1.4-6.3,3.4-8.3,6
		c-2,2.6-3,5.8-3,9.6h11.8c0-2.8,1-4.8,2.9-6.1c2-1.3,4.8-1.9,8.4-1.9c3.5,0,6.2,0.6,8.1,1.7c1.9,1.2,2.9,2.8,2.9,4.9
		c0,0,0,0.1,0,0.1c0,1.1-1.1,1.9-3.3,2.4c-2.2,0.5-6.1,1-11.6,1.6c-3.7,0.3-7.1,1.1-10.2,2.3c-3.1,1.2-5.5,2.8-7.3,5
		c-1.8,2.1-2.7,4.9-2.7,8.2c0,3,0.8,5.6,2.3,7.8c1.5,2.2,3.7,3.8,6.4,4.9c2.7,1.1,5.9,1.7,9.5,1.7c3,0,5.8-0.4,8.4-1.1
		c2.6-0.8,4.8-1.8,6.7-3.2c0.8-0.6,1.6-1.3,2.2-2c0.1,0.7,0.3,1.3,0.5,1.9c0.3,0.8,0.6,1.5,1,2.2c0.4,0.6,1.5,1.9,1.7,2.2h11.8
		c-0.2-0.2-1.4-1.6-1.8-2.3C523,88.9,522.6,88.1,522.3,87.1z M507.9,77.3c-1.3,1.8-3,3.1-5.1,3.9c-2.1,0.8-4.4,1.3-6.9,1.3
		c-3.1,0-5.4-0.5-6.9-1.5c-1.5-1-2.3-2.5-2.3-4.5c0-2.1,0.9-3.5,2.7-4.5c1.8-0.9,4.5-1.5,8.1-1.9c2.8-0.3,5.5-0.6,8.3-1.1
		c1.5-0.3,2.8-0.6,4.1-0.9v2.3C509.8,73.2,509.2,75.5,507.9,77.3z"/>
	<path class="st0" d="M569.2,44.1c-2.7-1.5-5.9-2.3-9.8-2.3c-3.8,0-7.2,0.9-10.3,2.7c-2.4,1.4-4.4,3.2-6.1,5.5v-7.3h-12v49.2h12
		V65.1c0-2.5,0.5-4.7,1.5-6.7c1-1.9,2.4-3.4,4.2-4.5c1.8-1.1,3.8-1.7,6.1-1.7c2.6,0,4.7,0.5,6.2,1.5s2.6,2.4,3.2,4.1
		c0.6,1.7,0.9,3.7,0.9,5.9c0,0.8,0,1.6,0,2.5c0,0.9,0,2,0,3.2v22.3h12V70.6c0-1.8,0-3.5,0-5.4c0-1.8,0-3.5,0-4.9c0-3.8-0.7-7-2-9.8
		C573.9,47.7,571.9,45.6,569.2,44.1z"/>
	<polygon class="st0" points="597.3,82.1 623.4,52.8 623.4,43.5 584.9,43.5 584.9,53.3 610,53.3 583.9,82.6 583.9,91.8 623.9,91.8 
		623.9,82.1 	"/>
</g>
<g>
	<g>
		<path class="st1" d="M53,113.8c-10.5,0-19.2-5-26.1-9c-1.2-0.7-2.5-1.4-3.8-2.1c-7-3.9-14.3-7.9-18.5-15.2C0,79.4,0,69.7,0,60.3
			v-0.7c0-7.5,2.2-13.9,4.9-20.8c0.7-1.9,1.3-3.8,1.9-5.9c1.5-5,3.1-10.1,6.7-14.3c4.7-5.5,10.8-10.2,17.6-13.7C37.4,1.7,45,0,53,0
			c7.5,0,15,1.8,21.7,5.2c6.9,3.5,12.3,9.2,16.7,14.3l1.4,1.6c4.3,5,8.8,10.1,11.3,16.5c2.6,6.8,2.6,14.1,2.6,21.1v0.8
			c0,10.3-0.4,20.2-5,28.1c-4.4,7.7-11.9,14.8-20.9,20C73.7,111.8,64.6,113.8,53,113.8z M53,6.5c-7,0-13.6,1.4-18.9,4.2
			c-6.1,3.1-11.5,7.3-15.7,12.2c-2.7,3.1-4,7.4-5.4,11.9c-0.6,2.1-1.3,4.2-2.1,6.3c-2.5,6.4-4.5,12.1-4.5,18.5v0.7
			c0,8.6,0,17.4,3.8,24c3.3,5.7,9.5,9.1,16,12.7c1.3,0.7,2.6,1.4,3.9,2.2c8,4.6,14.7,8.2,22.8,8.2c10.2,0,18.5-1.8,24.5-5.3
			c7.9-4.6,14.7-11,18.5-17.6c3.8-6.6,4.1-15.1,4.1-24.8v-0.9c0-6.4,0-13.1-2.2-18.8c-2.1-5.3-6.2-10-10.1-14.6l-1.4-1.6
			c-4-4.6-8.9-9.8-14.7-12.8C66,8.1,59.5,6.5,53,6.5z"/>
	</g>
	<g>
		<path class="st1" d="M53,100.4c-7.9,0-14.4-3.8-19.7-6.8c-0.9-0.5-1.9-1.1-2.9-1.6c-5-2.8-10.7-5.9-13.9-11.4
			c-3.5-6.1-3.5-13.3-3.5-20.3v-0.7c0-8.2,3.1-15.4,5.9-20.8c0.5-0.9,1-1.9,1.4-2.9c2.8-5.7,5.7-11.6,10.9-15.5
			C37.7,15.7,45.4,13,53,13c7.1,0,14.5,2.7,21.4,7.8c5.9,4.4,10.8,10.3,14.3,17.1c3.2,6.2,4.8,13.5,4.8,21.6c0,6.5,0,14.7-3.8,21.2
			c-3.3,5.8-8.9,11.1-15.7,15.1C68.6,98.9,61.7,100.4,53,100.4z M53,19.6c-6.2,0-12.6,2.2-17.8,6.1c-4,3-6.4,7.9-9,13.1
			c-0.5,1-1,2-1.5,3c-3.6,7.2-5.2,12.5-5.2,17.9v0.7c0,6.4,0,12.5,2.6,17.1c2.3,4,6.7,6.4,11.4,9c1,0.6,2,1.1,3,1.7
			c4.8,2.8,10.2,5.9,16.4,5.9c7.5,0,13.3-1.2,17.7-3.8c5.7-3.3,10.6-7.9,13.4-12.7c2.7-4.6,2.9-10.8,2.9-17.9
			c0-7.1-1.4-13.4-4.1-18.7c-3-5.8-7.3-11.1-12.3-14.8C66.5,23.1,60.2,19.6,53,19.6z"/>
	</g>
	<g>
		<path class="st1" d="M53,86c-13.9,0-26.1-12.3-26.1-26.4c0-6.2,2.7-13.4,7.5-19.9c4.7-6.4,11.3-9.9,18.6-9.9
			c7.8,0,14.8,3.4,19.2,9.4c3.8,5.2,6,12.6,6,20.3C78.3,73.9,66.7,86,53,86z M53,36.3c-5.2,0-10,2.6-13.4,7.2
			c-3.9,5.3-6.2,11.3-6.2,16c0,10.6,9.1,19.9,19.6,19.9c10.1,0,18.7-9.1,18.7-19.9c0-6.4-1.7-12.4-4.7-16.5
			C63.9,38.8,58.8,36.3,53,36.3z"/>
	</g>
	<g>
		<path class="st1" d="M53,72.7c-7,0-13-6-13-13.1h6.5c0,3.4,3.1,6.6,6.5,6.6c3.3,0,6.1-3,6.1-6.6h6.5C65.7,66.8,60,72.7,53,72.7z"
			/>
	</g>
</g>
</svg>
