<?xml version="1.0" encoding="utf-8"?>
<!-- Generator: Adobe Illustrator 27.0.0, SVG Export Plug-In . SVG Version: 6.00 Build 0)  -->
<svg version="1.1" id="Layer_1" xmlns="http://www.w3.org/2000/svg" xmlns:xlink="http://www.w3.org/1999/xlink" x="0px" y="0px"
	 viewBox="0 0 281.5 163.7" style="enable-background:new 0 0 281.5 163.7;" xml:space="preserve">
<style type="text/css">
	.st0{fill:#E2E2E2;}
	.st1{fill:#9E9E9E;}
</style>
<g>
	<path class="st0" d="M87.8,77.5c-0.2-6.1-0.1-12.3-0.1-18.5c35.4,0.1,70.7,0,106.1,0c0,6.1,0,12.2,0,18.3
		C158.5,77.5,123.1,77.4,87.8,77.5z M135.7,0h8.8c0.1,3,0.1,6,0,9c3,0,5.9,0,8.9,0c0,2.9,0,5.9-0.1,8.8c-2.9,0-5.9,0-8.8,0
		c0,2.9,0,5.8,0,8.7c-2.9,0.2-5.8,0.1-8.7,0.1c0-2.9,0-5.9,0-8.8c-3,0-5.9,0-8.9,0c0-2.9,0-5.9,0-8.8c3,0,6,0,8.9,0
		C135.8,6,136.1,3,135.7,0L135.7,0z M209.2,39.9c0,8.5-6.9,15.4-15.4,15.4l0,0c-8.5,0-15.4-6.9-15.4-15.4s6.9-15.4,15.4-15.4
		S209.2,31.4,209.2,39.9z M173.8,39.9c0,8.5-6.9,15.4-15.4,15.4l0,0c-8.5,0-15.4-6.9-15.4-15.4s6.9-15.4,15.4-15.4
		C166.9,24.5,173.8,31.4,173.8,39.9z M138.5,39.9c0,8.5-6.9,15.4-15.4,15.4l0,0c-8.5,0-15.4-6.9-15.4-15.4s6.9-15.4,15.4-15.4
		S138.5,31.4,138.5,39.9z M103.1,39.9c0,8.5-6.9,15.4-15.4,15.4l0,0c-8.5,0-15.4-6.9-15.4-15.4l0,0c0-8.5,6.9-15.4,15.4-15.4
		S103.1,31.4,103.1,39.9z"/>
	<path class="st1" d="M166.2,93.1c14.7,0,29.4,0.1,44.1-0.1c4.6,12.6,8.7,25.5,13.1,38.2c0.4-0.6,0.9-1.1,1.1-1.7
		c4.2-12.1,8.5-24.2,12.7-36.4c14.8,0,29.6,0,44.3,0v70.5c-9,0.1-18.1,0-27.2,0c0-16.2,0.1-32.5,0-48.7c-1.3,0.7-1.4,2.3-1.9,3.5
		c-5.3,15.1-10.6,30.1-15.9,45.2c-8.5,0-17,0.1-25.5-0.1c-5.3-15.4-10.8-30.8-16.2-46.2c-0.2-0.9-0.7-1.5-1.4-1.9
		c0,16,0,32.1,0,48.1c-9,0-18.1,0-27.1,0C166.2,140.1,166.2,116.6,166.2,93.1z M0,93.1c8.9,0,17.9,0,26.8,0c0,8.5,0,17.1,0,25.6
		c8.9-8.5,17.5-17.2,26.4-25.6c9,0,18,0,27,0c-10.4,10.5-21,20.8-31.3,31.4c13,12.6,25.5,25.6,38.6,38.1c0.1-23.2,0-46.3,0-69.5
		c9.1,0,18.3,0,27.4,0c0,17.6,0,35.1,0,52.7c14.6,0,29.2,0,43.7,0c0.2,6,0,11.9,0.1,17.9c-35.4,0-70.9,0-106.3,0
		c-8.4-8.5-16.9-16.9-25.3-25.3c-0.1,8.5,0,16.9-0.1,25.4c-9-0.1-18,0-27,0L0,93.1z"/>
</g>
</svg>
