<?xml version="1.0" encoding="utf-8"?>
<!-- Generator: Adobe Illustrator 27.0.0, SVG Export Plug-In . SVG Version: 6.00 Build 0)  -->
<svg version="1.1" id="Layer_1" xmlns="http://www.w3.org/2000/svg" xmlns:xlink="http://www.w3.org/1999/xlink" x="0px" y="0px"
	 viewBox="0 0 484.5 130.9" style="enable-background:new 0 0 484.5 130.9;" xml:space="preserve">
<style type="text/css">
	.st0{fill:#9E9E9E;}
	.st1{fill:#38BA9B;}
	.st2{fill:#AA4A9B;}
	.st3{fill:#FDC24E;}
	.st4{fill:#FFFFFF;}
	.st5{fill:#023F87;}
</style>
<g id="hAqU8e_00000008848110200794659710000016758073069977863809_">
	
		<image style="overflow:visible;" width="157" height="75" id="hAqU8e" xlink:href="4C9B696317B6D9AD.jpg"  transform="matrix(1.7471 0 0 1.7471 38.8561 -161.188)">
	</image>
</g>
<path class="st0" d="M66.6,122.5c-7.3,1.3-14.7,1.7-22.4,2.7L20.8,56.6v71.5c-7.3,0.8-13.9,1.8-20.8,2.8V0h19.4L46,74.3V0h20.6
	L66.6,122.5L66.6,122.5z M106.9,47.9c7.9,0,20.1-0.4,27.4-0.4V68c-9.1,0-19.7,0-27.4,0.4v30.4c12-0.8,24-1.8,36.2-2.2v19.7
	l-56.6,4.5V0h56.6v20.5h-36.2C106.9,20.5,106.9,47.9,106.9,47.9z M219.2,20.5h-21.2v94.1c-6.9,0-13.8,0-20.5,0.3V20.5h-21.2V0h62.9
	C219.2,0,219.2,20.5,219.2,20.5z M252.4,46.5h28V67h-28v46.4h-20.1V0h57.2v20.5h-37.1C252.4,20.5,252.4,46.5,252.4,46.5z
	 M322.7,95.5c11.6,0.3,23.4,1.2,34.8,1.8v20.2c-18.3-1.2-36.6-2.3-55.2-2.7V0h20.5V95.5L322.7,95.5z M374.8,118.9
	c6.5,0.4,13.4,0.8,20.1,1.5V0h-20.1V118.9z M484.5,0l-26,62.3l26,68.7c-7.7-1-15.3-2.4-23-3.7l-14.7-37.8l-15,34.8
	c-7.4-1.3-14.6-1.7-22-2.7l26.3-60L412.4,0h22l13.4,34.4L462.1,0L484.5,0L484.5,0z"/>
<path class="st1" d="M100.6-126.8c-0.4,1-1.5,1.4-2.5,1c-1-0.4-1.4-1.5-1-2.5c0.4-1,1.5-1.4,2.5-1
	C100.5-128.9,101-127.8,100.6-126.8 M92-151.2c0,0.2,0.5,2,0.4,2.2l-0.6,1l-1.6,0.5c0,0-1.3-0.6-1.4-0.8c-0.1-0.2-0.3-1.5-0.3-2.3
	c0-0.5-0.8-1-1.3-0.1c-1,1.8-1.2,2.6-0.9,4c0.2,0.8,1.5,1.7,2,2c0.4,0.2,1.3,0.7,1.6,1.2c0.3,0.6,5.8,13.4,5.8,13.4s-1.2,2-0.3,3.7
	c0.8,1.5,2.3,2.5,4.6,1.9c2.1-0.5,2.9-3.1,1.9-4.7c-0.6-1.1-1.6-1.9-2.6-1.8c0,0-5-12.7-5.2-13.2c-0.2-0.5,0.4-1.5,0.8-2.6
	c0.4-1-0.9-3.3-1.8-4.1C92.2-151.8,92-151.3,92-151.2"/>
<path class="st2" d="M85.5-88.7c0-0.4,3.9-8.1,9.5-12.7c5.5-4.6,9.8-10.7,6.2-15.3c-3.6-4.6-11.3-4.6-16.9,4.8
	c-1.4-1.7-8.1-6-12.5-1.7C63.1-105.1,85.5-89.1,85.5-88.7"/>
<path class="st3" d="M105.9-108.7c1.8-4.5-2.3-5.7,0.9-12.3c3.1-6.1,9.7-5.8,13.2-3.9c4.2,2.2,7.7,8,3.8,13.6
	c-4.4,6.4-9.4,4.2-11.1,6.5c-1.7,2.3-2.4,3-2.4,3c-0.6,0.3-5.8-2.7-6-3.4C104.4-105.1,105.4-107.2,105.9-108.7"/>
<path class="st4" d="M117.7-111.4c-2.1,1-5,2.5-6.5,4.7l-2.5-1.5c0.9-2,0.9-4.2,0.9-6.1c0-3,0.1-4.8,2.3-5.1
	c0.5-0.1,0.9,0.1,1.2,0.5c-0.1,0.1-0.1,0.1-0.2,0.1c-1,0.8-1.9,2.1-1.6,3.1c0.1,0.4,0.4,1,1.5,1.2l0.1,0l0.1,0
	c0.7-0.1,1.2-0.5,1.5-1.2c0.4-0.8,0.4-1.9,0-2.8c0.5-0.2,1.2-0.4,1.9,0c0.8,0.4,1.1,1,1.2,1.6c-0.1,0-0.2,0.1-0.3,0.1
	c-1.1,0.5-2,1.6-2.1,2.6c0,0.5,0.2,1,0.7,1.3c0.4,0.2,0.8,0.2,1.2,0c0.9-0.4,1.5-1.6,1.6-2.2c0-0.2,0.1-0.5,0.1-0.8
	c0.2,0.1,0.4,0.2,0.6,0.4c0.6,0.5,0.8,1,0.7,1.6C119.9-113,119-111.9,117.7-111.4 M113.5-118c0.2,0.6,0.2,1.3-0.1,1.9
	c-0.1,0.3-0.3,0.5-0.6,0.6c-0.5-0.1-0.5-0.3-0.5-0.4C112.2-116.4,112.6-117.3,113.5-118 M117.6-115.9c0,0.3,0,0.4,0,0.5
	c-0.1,0.3-0.6,1.2-1,1.4c-0.1,0.1-0.2,0-0.2,0c-0.1-0.1-0.2-0.1-0.1-0.3C116.2-114.7,116.8-115.5,117.6-115.9
	C117.6-115.9,117.6-115.9,117.6-115.9 M120.1-116.4c-0.4-0.4-0.9-0.6-1.5-0.7c-0.2-1-0.7-1.9-1.8-2.4c-0.8-0.4-1.8-0.4-2.8,0
	c0,0,0-0.1-0.1-0.1c-0.5-0.7-1.3-1-2.2-0.9c-3.1,0.5-3.1,3.2-3.1,6.1c0,1.8,0,3.8-0.8,5.6l-0.4-0.3c-0.3-0.1-0.6-0.1-0.7,0.2
	c-0.1,0.2-0.1,0.4,0,0.6c0,0.1,0.1,0.1,0.2,0.2l5.1,3c0.2,0.1,0.6,0.1,0.7-0.2c0.1-0.2,0.1-0.6-0.2-0.7l-0.3-0.2
	c1.4-1.9,4.1-3.4,6-4.2c1.3-0.6,2.7-1.9,2.9-3.4C121.2-114.5,121.1-115.5,120.1-116.4"/>
<path class="st4" d="M105.6-106.2c-0.1-0.2-0.1-0.4,0-0.6c0.1-0.3,0.5-0.3,0.7-0.2l4.9,2.8c0.2,0.1,0.3,0.5,0.2,0.7
	c-0.1,0.3-0.5,0.3-0.7,0.2l-4.9-2.8C105.7-106.1,105.7-106.1,105.6-106.2"/>
<path class="st3" d="M127.1-119.4c-0.1-0.1-0.1-0.2-0.1-0.3c-0.1-0.4,0.2-0.8,0.6-0.9l2.4-0.5c0.4-0.1,0.8,0.2,0.9,0.6
	c0.1,0.4-0.2,0.8-0.6,0.9l-2.4,0.5C127.6-119,127.3-119.2,127.1-119.4"/>
<path class="st3" d="M123.2-124.9c-0.2-0.3-0.2-0.7,0.1-1l3.5-3.6c0.3-0.3,0.8-0.3,1.1,0c0.3,0.3,0.3,0.8,0,1.1l-3.5,3.6
	c-0.3,0.3-0.8,0.3-1.1,0C123.2-124.8,123.2-124.8,123.2-124.9"/>
<path class="st3" d="M116.4-128c-0.1-0.1-0.1-0.3-0.1-0.5l0.4-5.5c0-0.4,0.4-0.8,0.8-0.7c0.4,0,0.8,0.4,0.7,0.8l-0.4,5.5
	c0,0.4-0.4,0.8-0.8,0.7C116.7-127.7,116.5-127.8,116.4-128"/>
<path class="st3" d="M109.3-127.8l-1.4-2c-0.2-0.4-0.1-0.8,0.2-1.1c0.4-0.2,0.8-0.1,1.1,0.2l1.4,2c0.2,0.3,0.1,0.8-0.2,1.1
	C110-127.3,109.5-127.4,109.3-127.8"/>
<path class="st5" d="M61-124.3l4-12.8c1.3,0.5,2.6,0.9,2.6,0.9l-1.1-8.9l-6.8,6c0.1,0.1,1.4,0.6,2.8,1.1l-4.1,12.9L61-124.3z"/>
<polygon class="st2" points="75.4,-149.5 73.3,-160.1 79.8,-157.7 75.1,-154.5 76,-149.6 "/>
<path class="st5" d="M63.4-34.4c0.2-0.3,16.9-7.5,16.9-7.5s1-36.7,0.2-39.7C77.8-91.7,74.8-92,67.6-97.5c-4.1-2.1-5,1.7-3.4,3.5
	c1.5,1.7,7.1,7.8,7.1,7.8s-5.8-1.9-7.1-2.9c-0.7-0.6-3.5-2.7-5.8-4.6c-1.9-1.6-3.3-3.3-4.4-5.4c-0.9-1.6-1.2-3.2-1.9-4
	c-0.9-1.1-2.4-0.8-2.8,1.3c-0.7,3.6,2.9,9.3,2.9,9.3s-3.8-2.8-6.1-8.5c-0.3-0.7-1.1-1.5-1.8-1.5c-1.2,0-2.2,1.3-1.8,3.4
	c0.7,3.2,5.6,12.3,8.9,13.8c-2.1-0.6-3.4-0.8-7-4.2c-2.6-2.4-3,0.8-2,2.8c1.6,2.9,7.8,6.6,8.7,7.1c-0.7,0-2.9-0.2-4.7-0.9
	c-1.6-0.7-3.7,1.6-0.2,3.6c2.4,1.4,16.3,4.1,19.1,6.6c2.6,2.3,2,5.7,2.2,8.2C67.7-59.4,63.4-34.4,63.4-34.4"/>
<path class="st5" d="M106.5-34.4l-16.9-7.5c0,0-1-36.7-0.2-39.7C92-91.7,95.1-92,102.3-97.5c4.1-2.1,5,1.7,3.4,3.5
	c-1.5,1.7-7.1,7.8-7.1,7.8s5.8-1.9,7.1-2.9c0.7-0.6,3.5-2.7,5.8-4.6c1.9-1.6,3.3-3.3,4.4-5.4c0.9-1.6,1.2-3.2,1.9-4
	c0.9-1.1,2.4-0.8,2.8,1.3c0.7,3.6-2.9,9.3-2.9,9.3s3.8-2.8,6.1-8.5c0.3-0.7,1.1-1.5,1.8-1.5c1.2,0,2.2,1.3,1.8,3.4
	c-0.6,3.2-5.6,12.3-8.9,13.8c2.2-0.6,3.4-0.8,7.1-4.2c2.6-2.4,3,0.8,2,2.8c-1.5,2.9-7.8,6.6-8.7,7.1c0.7,0,2.9-0.2,4.6-0.9
	c1.6-0.7,3.7,1.6,0.2,3.6c-2.4,1.4-16.3,4.1-19.1,6.6c-2.6,2.3-2,5.7-2.2,8.2C102.2-59.4,106.5-34.4,106.5-34.4"/>
<path class="st5" d="M117.3-143.8c-0.4-2.9-6.5-3.4-9.8-3.1c-3.3,0.3-7.9,1.1-7.4,5.5c0.3,3.5,5.1,3.7,6.8,3.6
	c0.7,2.9,4.3,4.6,5.9,3.9c-2.2-1.1-2.9-3-3-4.1l1.4-0.1C115.6-138.3,117.6-140.9,117.3-143.8"/>
<path class="st3" d="M61.8-114.8c-0.4,0.7-5.2,2.9-5.2,2.9s5.4,6.3,5.1,6.3c-0.3,0.1-4.4-0.1-4.4-0.1l4.3,7.3l-9.5-9.3
	c0,0,5.1-0.1,4.9,0c-0.2,0.1-5.5-6.4-5.5-6.4l8.8-1.2L61.8-114.8z"/>
<path class="st1" d="M45.7-119.3c-5.5,0.4-4.8,8.5,0.6,8.5h18.8c4.6,0,4.9-6.5,0.1-6.5c-0.3-3-4-3.3-4.9-0.5c-0.2-5.7-6.3-5.3-7-1.6
	C53.2-123.7,46.3-124.5,45.7-119.3"/>
<path class="st5" d="M92.7-123.5c0,0-6.3-11.2-10.6-18.7l-0.8,4l-2.2-3.5l-0.7,5.6l-3-5l-0.8,4.6l-2-3.9c-1.1,8-2.7,20.2-2.9,20.9
	L92.7-123.5z"/>
<path class="st3" d="M79.4-147.4c-1.3-2.3-2.4-2.9-3.5-2.6c-1.1,0.2-2.2,0.7-2.6,3.6c-0.2,1.3-0.5,3.3-0.6,5.9l0,0l2,3.9l0.8-4.6
	l3,5l0.7-5.6l2.2,3.5l0.8-4l0,0C82.1-142.3,80.7-145.1,79.4-147.4"/>
<text transform="matrix(1 0 0 1 143.0798 -94.1896)" style="font-family:'Museo-700'; font-size:60.8981px;">BURO</text>
<text transform="matrix(1 0 0 1 143.0798 -34.4476)" style="font-family:'Museo-700'; font-size:60.8981px;">O,ZO</text>
</svg>
