<?xml version="1.0" encoding="utf-8"?>
<!-- Generator: Adobe Illustrator 27.0.0, SVG Export Plug-In . SVG Version: 6.00 Build 0)  -->
<svg version="1.1" id="Layer_1" xmlns="http://www.w3.org/2000/svg" xmlns:xlink="http://www.w3.org/1999/xlink" x="0px" y="0px"
	 viewBox="0 0 497.2 194.4" style="enable-background:new 0 0 497.2 194.4;" xml:space="preserve">
<style type="text/css">
	.st0{fill:#E2E2E2;}
	.st1{fill:#9E9E9E;}
</style>
<g>
	<path class="st0" d="M179.5,54.7L179.5,54.7c2.1,0.7,3.6,3.4,5,5.1c5.7-6.8,1-21.3-7.6-23.1c0.9-8.7-5.2-18.1-14.5-18.2
		c-5.7,0-5.1-0.1-8.1-2.2C100.8-15.7,54.3,2.6,50.2,43.4c-2.9,28.7,28.3,48.9,54.5,40.9c18.7-5.7,26.6-18.8,32.4-24.6
		c-2.6-3.9-8.5-4.5-8.5-4.5c8.2-1.7,10.7,2.2,10.8,2.2l0,0c7.6,41.9-23.4,88.9-67,85.3c22.4,12.9,54.7,3.1,65.7-20.5
		c-11.2,33.9-57.6,39.3-76,16.5c-16.5-20.4-7.7-35.5-2.2-39.5c2.1-1.8,4.7-3,7.5-3.5l0,0c1.7-0.3,3.4-0.2,5,0.1
		c2.6,0.6,5.6,2.7,4.1,3.6c-0.2,0.1-0.4,0.2-0.6,0.3h-0.1c-2.7,0-4.9,2.2-4.9,4.9c0,2.7,2.2,4.9,4.9,4.9c0.7,0,1.4-0.1,2-0.4
		c2.4-0.8,4.2-3,5.1-4.8c1.3-2.8,1.3-4.9,0.8-6.7c-1.8-6.5-10.6-10.5-19.1-9.7c-9,0.9-21.4,6.7-25.5,24.1
		c-5.2,22.2,12.7,43.6,22.2,49c-41.7-22-50-60.7-34.2-76.8c0.2-0.1,0.3-0.3,0.5-0.4c1.9-1.7,4.3-2.8,6.7-3.2l0,0
		c1.5-0.2,3-0.2,4.5,0.1c2.4,0.6,5.1,2.5,3.7,3.2c-0.2,0.1-0.3,0.2-0.5,0.3h-0.1c-2.5,0-4.5,2-4.5,4.5c0,2.5,2,4.5,4.5,4.5
		c0.6,0,1.2-0.1,1.8-0.4c2.2-0.7,3.8-2.8,4.6-4.4c1.2-2.5,1.2-4.4,0.7-6.1c-1.6-5.9-9.6-9.6-17.4-8.8c-1,0.1-2,0.3-3,0.5l0,0
		c-6.2,1.4-13.2,5.3-17.5,13.9c-8.2,14.1-6,33.7,1.2,49.6c16.8,37,49.6,57.4,92.7,56.8c40.4,0.1,71.6-35.6,75.2-74.6
		c-0.7,21.5-4.1,33.6-19.6,53C200.7,139.9,204.3,92.8,179.5,54.7z M170,33.5c-1.3,5-14.2,0.3-12.5-4.3C160.4,22.4,172,26.1,170,33.5
		z M174.3,43.5c0,0,0-0.1,0.1-0.1C174.4,43.5,174.3,43.5,174.3,43.5z"/>
	<path class="st0" d="M7.7,86.2c-3.3,5.7-4.9,12.3-5.2,19.2C1,100.1-2.5,83.9,3,68.9c5.8-15.6,13.4-20.1,21.8-21.7
		c8.2-1.6,16.9,1.3,19.6,8.5c0.7,1.7,0.5,3.8-0.8,6.6c-0.8,1.7-2.6,3.9-5,4.7c-2.4,1.1-5.3,0-6.3-2.5c-1.1-2.4,0-5.3,2.5-6.3
		c0.6-0.3,1.3-0.4,1.9-0.4h0.1c0.2-0.1,0.3-0.2,0.5-0.3c1.5-0.8-1.4-2.9-4-3.5c-1.6-0.4-3.3-0.4-4.9-0.1l0,0
		c-2.7,0.5-5.2,1.6-7.3,3.5c-6.1,5.6-6.4,16.5-6.4,20.1C11.8,79.7,9.4,82.7,7.7,86.2z"/>
</g>
<path class="st1" d="M225.4,39.4c0-7.8,1.5-13.7,4.5-17.7c3-4,7.5-6,13.5-6s10.5,2,13.5,6c3,4,4.6,9.9,4.5,17.7
	c0,7.7-1.5,13.5-4.5,17.4c-3,3.9-7.5,5.9-13.5,5.9c-6,0-10.4-2-13.5-5.9C226.9,52.9,225.4,47.1,225.4,39.4z M243.4,54.8
	c1.3,0,2.6-0.2,3.7-0.8c1.1-0.6,2.1-1.5,2.7-2.6c0.8-1.5,1.4-3,1.6-4.7c0.4-2.4,0.6-4.8,0.5-7.2c0-2.5-0.1-5-0.5-7.4
	c-0.2-1.7-0.8-3.3-1.6-4.8c-0.6-1.1-1.5-2-2.7-2.6c-2.4-1.1-5.1-1.1-7.5,0c-1.1,0.6-2.1,1.5-2.6,2.6c-0.8,1.5-1.3,3.1-1.5,4.8
	c-0.4,2.4-0.6,4.9-0.5,7.4c0,2.4,0.1,4.8,0.5,7.2c0.2,1.6,0.8,3.2,1.5,4.7c0.6,1.1,1.5,2,2.6,2.6C240.8,54.5,242.1,54.8,243.4,54.8z
	"/>
<path class="st1" d="M266,39.4c0-7.8,1.5-13.6,4.5-17.6c3-4,7.5-6,13.5-6c5.2,0,9.3,1.5,12.2,4.6s4.6,7.8,5.2,14.1l-9.3,2.8
	c-0.1-2.2-0.3-4.3-0.8-6.4c-0.3-1.5-0.9-2.9-1.6-4.2c-0.6-1-1.5-1.8-2.4-2.3c-1-0.5-2.2-0.7-3.3-0.7c-1.3,0-2.6,0.2-3.8,0.8
	c-1.1,0.6-2.1,1.5-2.6,2.6c-0.7,1.5-1.3,3.1-1.5,4.8c-0.4,2.4-0.5,4.9-0.5,7.4c0,2.4,0.1,4.9,0.5,7.3c0.2,1.7,0.7,3.3,1.5,4.8
	c0.6,1.1,1.5,2,2.6,2.5c1.2,0.5,2.4,0.8,3.7,0.7c1.1,0,2.3-0.2,3.3-0.7c1-0.5,1.9-1.3,2.5-2.3c0.7-1.1,1.1-2.5,1.6-4.2
	c0.4-1.1,0.7-2.2,0.8-3.3h9.3c-1,12.5-6.8,18.5-17.5,18.5c-6,0-10.5-2-13.5-5.9C267.5,52.9,266,47.1,266,39.4z"/>
<path class="st1" d="M428.7,155.7c0-7.8,1.5-13.6,4.5-17.6c3-4,7.5-6,13.5-6c5.2,0,9.3,1.5,12.2,4.6c2.9,3.1,4.6,7.8,5.2,14.1
	l-9.3,2.8c-0.1-2.2-0.3-4.3-0.8-6.4c-0.3-1.5-0.9-2.9-1.6-4.2c-0.6-1-1.4-1.8-2.4-2.3c-1-0.5-2.2-0.7-3.3-0.7
	c-1.3,0-2.6,0.2-3.8,0.8c-1.1,0.6-2.1,1.5-2.6,2.6c-0.7,1.5-1.3,3.1-1.5,4.8c-0.4,2.4-0.6,4.9-0.5,7.4c0,2.4,0.1,4.9,0.5,7.3
	c0.2,1.7,0.7,3.3,1.5,4.7c0.6,1.1,1.5,2,2.6,2.5c1.2,0.5,2.4,0.8,3.7,0.7c1.1,0,2.3-0.2,3.3-0.7c1-0.5,1.9-1.3,2.5-2.3
	c0.7-1.1,1.1-2.5,1.6-4.2c0.4-1.1,0.7-2.2,0.8-3.3h9.3c-1,12.5-6.8,18.5-17.5,18.5c-6,0-10.5-2-13.5-5.9
	C430.2,169.2,428.7,163.4,428.7,155.7z"/>
<path class="st1" d="M306.2,62.1V16.5h27.6v7.9h-18v11h16.7v8h-16.7v10.8h18.7v8H306.2z"/>
<path class="st1" d="M418.8,16.5v45.6h-15.4l-12.2-37.3l0.6,37.3h-9.3V16.5h14.8l12.7,38.9l-0.6-38.9H418.8z"/>
<path class="st1" d="M244.3,120.7c-5,0-8.9-1.2-11.9-3.6c-3-2.4-4.8-5.9-5.5-10.5l8.9-3.2c0.2,3.3,1,5.8,2.5,7.5
	c1.5,1.7,3.7,2.6,6.6,2.6c1.7,0,3-0.5,3.9-1.4c0.9-0.8,1.4-2.1,1.3-3.3c0-1.1-0.3-2.2-1-3.1c-0.7-0.8-1.5-1.5-2.5-2
	c-1.1-0.6-2.3-1.1-3.6-1.5c-1.4-0.4-2.7-0.8-4.1-1.3s-2.8-1-4.1-1.7c-1.3-0.7-2.5-1.5-3.6-2.5c-1.1-1.1-2-2.4-2.5-3.9
	c-1.4-3.7-1.3-7.8,0.1-11.5c0.7-1.6,1.7-3,3-4.2c1.4-1.2,3-2,4.7-2.5c2-0.6,4.1-0.9,6.1-0.8c4.7,0,8.5,1.2,11.2,3.7
	c2.8,2.5,4.4,6,4.8,10.7l-8.8,3.3c0-1.6-0.1-3.2-0.6-4.8c-0.3-1.2-0.8-2.2-1.6-3.1c-0.7-0.8-1.5-1.4-2.4-1.8c-1-0.4-2.1-0.6-3.1-0.6
	c-1.6,0-2.9,0.5-3.8,1.4c-0.9,0.9-1.4,2.2-1.4,3.5c0,1.8,0.6,3.1,1.6,4.1c1.2,1,2.6,1.8,4.1,2.3c1.6,0.6,3.4,1.2,5.4,1.8
	c1.9,0.6,3.7,1.3,5.4,2.3c1.7,1,3.1,2.4,4.1,4c1.1,1.7,1.7,4,1.6,6.9c0,4.2-1.3,7.5-3.9,9.8C252.9,119.6,249.2,120.7,244.3,120.7z"
	/>
<path class="st1" d="M264,120V74.4h27.6v8h-18v10.9h16.7v8h-16.7v10.8h18.7v8L264,120z"/>
<path class="st1" d="M350.3,74.4L343,120h-14.2l-5.6-32.7l-5.5,32.7h-14.2l-7.2-45.6h9.7l4.6,36.7l6.7-36.7h11.9L336,111l4.6-36.6
	L350.3,74.4L350.3,74.4z"/>
<path class="st1" d="M359.7,74.4h14.5l12.1,45.6h-10.1l-2.9-13.1l-11.6,3.2c-1.5,0.4-2.7,1.6-3,3.1l-1.6,6.7h-9.5L359.7,74.4z
	 M370.8,96.3l-4.1-16.2l-5.5,22.2l7.6-2.2C370.4,99.5,371.2,97.9,370.8,96.3z"/>
<path class="st1" d="M351.2,16.5h14.5l12.1,45.6h-10.1L364.9,49l-11.6,3.2c-1.5,0.4-2.7,1.6-3,3.1l-1.6,6.7h-9.5L351.2,16.5z
	 M362.3,38.3l-4.1-16.2l-5.5,22.2l7.6-2.2C361.8,41.5,362.7,39.9,362.3,38.3z"/>
<path class="st1" d="M236,132.4h14.5l12.1,45.6h-10.1l-2.9-13.1l-11.6,3.2c-1.5,0.4-2.7,1.6-3,3.1l-1.6,6.7h-9.5L236,132.4z
	 M247.1,154.3L243,138l-5.5,22.2l7.6-2.2C246.6,157.5,247.5,155.8,247.1,154.3z"/>
<path class="st1" d="M356.6,132.4h14.5l12.1,45.6h-10.1l-2.9-13.1l-11.6,3.2c-1.5,0.4-2.7,1.6-3,3.1L354,178h-9.5L356.6,132.4z
	 M367.7,154.3l-4.1-16.2l-5.4,22.2l7.6-2.2C367.2,157.5,368.1,155.9,367.7,154.3L367.7,154.3z"/>
<path class="st1" d="M404.8,73.8c5,0,8.9,1.4,11.8,4.1c2.9,2.7,4.8,6.5,5.5,11.4l-9.5,3.8c-0.3-3.9-1.2-6.8-2.5-8.6
	c-1.2-1.7-3.2-2.8-5.3-2.7c-3,0-5.2,1.3-6.6,3.9c-1.4,2.6-2.2,6.5-2.2,11.6c0,5.1,0.7,8.9,2.2,11.5c1.5,2.6,3.7,3.9,6.5,3.9
	c2.4,0,4.2-0.8,5.4-2.4c1.2-1.6,2.1-3.7,2.4-6.4h-11.5v-6h20.6v22h-6l0-10.2c-1.5,4-3.6,6.7-5.7,8.5c-2.1,1.7-5.1,2.3-8.2,2.3
	c-2.2,0-4.4-0.5-6.3-1.5c-1.9-1.1-3.6-2.7-4.8-4.6c-1.4-2.2-2.4-4.7-3-7.3c-0.7-3.2-1.1-6.5-1.1-9.7c0-7.8,1.5-13.7,4.5-17.8
	C394.2,75.8,398.7,73.8,404.8,73.8z"/>
<path class="st1" d="M427.1,120V74.4h27.6v8h-18v10.9h16.7v8h-16.7v10.8h18.7v8L427.1,120z"/>
<path class="st1" d="M294.3,170.1v8h-26.9v-45.6h9.6v37.6H294.3z"/>
<path class="st1" d="M325.7,170.1v8h-26.9v-45.6h9.6v37.6H325.7z"/>
<path class="st1" d="M330.4,132.4h9.6V178h-9.6V132.4z"/>
<path class="st1" d="M424.1,132.4V178h-15.4l-12.2-37.3l0.6,37.3h-9.3v-45.6h14.8l12.7,38.9l-0.6-38.9H424.1z"/>
<path class="st1" d="M468.9,178v-45.6h27.6v8h-18v11h16.7v8h-16.7v10.8h18.7v8L468.9,178z"/>
</svg>
