<?xml version="1.0" encoding="utf-8"?>
<!-- Generator: Adobe Illustrator 27.0.0, SVG Export Plug-In . SVG Version: 6.00 Build 0)  -->
<svg version="1.1" id="Layer_1" xmlns="http://www.w3.org/2000/svg" xmlns:xlink="http://www.w3.org/1999/xlink" x="0px" y="0px"
	 viewBox="0 0 270 129.8" style="enable-background:new 0 0 270 129.8;" xml:space="preserve">
<style type="text/css">
	.st0{fill:#E2E2E2;}
	.st1{fill:#9E9E9E;}
</style>
<g>
	<path class="st0" d="M58.7,33.2c-0.4,1-1.5,1.4-2.5,1c-1-0.4-1.4-1.5-1-2.5c0.4-1,1.5-1.4,2.5-1C58.6,31.1,59.1,32.2,58.7,33.2
		 M50.2,8.9c0,0.2,0.5,2,0.4,2.2l-0.6,1l-1.6,0.5c0,0-1.3-0.6-1.4-0.8c-0.1-0.2-0.3-1.5-0.3-2.3c0-0.5-0.8-1-1.3-0.1
		c-1,1.8-1.2,2.6-0.9,4c0.2,0.8,1.5,1.7,2,2c0.4,0.2,1.3,0.7,1.6,1.2c0.3,0.6,5.8,13.4,5.8,13.4s-1.2,2-0.3,3.7
		c0.8,1.5,2.3,2.5,4.6,1.9c2.1-0.5,2.9-3.1,1.9-4.7c-0.6-1.1-1.6-1.9-2.6-1.8c0,0-5-12.7-5.2-13.2c-0.2-0.5,0.4-1.5,0.8-2.6
		c0.4-1-0.9-3.3-1.8-4.1C50.3,8.2,50.2,8.7,50.2,8.9"/>
	<path class="st0" d="M43.6,71.4c0-0.4,3.9-8.1,9.5-12.7c5.5-4.6,9.8-10.7,6.2-15.3c-3.6-4.6-11.3-4.6-16.9,4.8
		c-1.4-1.7-8.1-6-12.5-1.7C21.2,54.9,43.7,71,43.6,71.4"/>
	<path class="st0" d="M64,51.4c1.8-4.5-2.3-5.7,0.9-12.3c3.1-6.1,9.7-5.8,13.2-3.9c4.2,2.2,7.7,8,3.8,13.6
		c-4.4,6.4-9.4,4.2-11.1,6.5c-1.7,2.3-2.4,3-2.4,3c-0.6,0.3-5.8-2.7-6-3.4C62.5,55,63.5,52.9,64,51.4"/>
	<path class="st1" d="M75.9,48.7c-2.1,1-5,2.5-6.5,4.7l-2.5-1.5c0.9-2,0.9-4.2,0.9-6.1c0-3,0.1-4.8,2.3-5.1c0.5-0.1,0.9,0.1,1.2,0.5
		c-0.1,0.1-0.1,0.1-0.2,0.1c-1,0.8-1.9,2.1-1.6,3.1c0.1,0.4,0.4,1,1.5,1.2l0.1,0l0.1,0c0.7-0.1,1.2-0.5,1.5-1.2
		c0.4-0.8,0.4-1.9,0-2.8c0.5-0.2,1.2-0.4,1.9,0c0.8,0.4,1.1,1,1.2,1.6c-0.1,0-0.2,0.1-0.3,0.1c-1.1,0.5-2,1.6-2.1,2.6
		c0,0.5,0.2,1,0.7,1.3c0.4,0.2,0.8,0.2,1.2,0c0.9-0.4,1.5-1.6,1.6-2.2c0-0.2,0.1-0.5,0.1-0.8c0.2,0.1,0.4,0.2,0.6,0.4
		c0.6,0.5,0.8,1,0.7,1.6C78.1,47.1,77.1,48.1,75.9,48.7 M71.6,42.1c0.2,0.6,0.2,1.3-0.1,1.9c-0.1,0.3-0.3,0.5-0.6,0.6
		c-0.5-0.1-0.5-0.3-0.5-0.4C70.3,43.7,70.7,42.8,71.6,42.1 M75.8,44.2c0,0.3,0,0.4,0,0.5c-0.1,0.3-0.6,1.2-1,1.4
		c-0.1,0.1-0.2,0-0.2,0c-0.1-0.1-0.2-0.1-0.1-0.3C74.3,45.4,74.9,44.6,75.8,44.2C75.7,44.2,75.8,44.2,75.8,44.2 M78.2,43.7
		c-0.4-0.4-0.9-0.6-1.5-0.7c-0.2-1-0.7-1.9-1.8-2.4c-0.8-0.4-1.8-0.4-2.8,0c0,0,0-0.1-0.1-0.1c-0.5-0.7-1.3-1-2.2-0.9
		c-3.1,0.5-3.1,3.2-3.1,6.1c0,1.8,0,3.8-0.8,5.6L65.5,51c-0.3-0.1-0.6-0.1-0.7,0.2c-0.1,0.2-0.1,0.4,0,0.6c0,0.1,0.1,0.1,0.2,0.2
		l5.1,3c0.2,0.1,0.6,0.1,0.7-0.2c0.1-0.2,0.1-0.6-0.2-0.7l-0.3-0.2c1.4-1.9,4.1-3.4,6-4.2c1.3-0.6,2.7-1.9,2.9-3.4
		C79.3,45.6,79.2,44.6,78.2,43.7"/>
	<path class="st1" d="M63.7,53.9c-0.1-0.2-0.1-0.4,0-0.6c0.1-0.3,0.5-0.3,0.7-0.2l4.9,2.8c0.2,0.1,0.3,0.5,0.2,0.7
		c-0.1,0.3-0.5,0.3-0.7,0.2L63.9,54C63.8,54,63.8,53.9,63.7,53.9"/>
	<path class="st0" d="M85.2,40.6c-0.1-0.1-0.1-0.2-0.1-0.3c-0.1-0.4,0.2-0.8,0.6-0.9l2.4-0.5c0.4-0.1,0.8,0.2,0.9,0.6
		c0.1,0.4-0.2,0.8-0.6,0.9L86,41C85.7,41,85.4,40.9,85.2,40.6"/>
	<path class="st0" d="M81.3,35.2c-0.2-0.3-0.2-0.7,0.1-1l3.5-3.6c0.3-0.3,0.8-0.3,1.1,0c0.3,0.3,0.3,0.8,0,1.1l-3.5,3.6
		c-0.3,0.3-0.8,0.3-1.1,0C81.3,35.3,81.3,35.2,81.3,35.2"/>
	<path class="st0" d="M74.5,32.1c-0.1-0.1-0.1-0.3-0.1-0.5l0.4-5.5c0-0.4,0.4-0.8,0.8-0.7c0.4,0,0.8,0.4,0.7,0.8l-0.4,5.5
		c0,0.4-0.4,0.8-0.8,0.7C74.8,32.4,74.6,32.3,74.5,32.1"/>
	<path class="st0" d="M67.4,32.3l-1.4-2c-0.2-0.4-0.1-0.8,0.2-1.1c0.4-0.2,0.8-0.1,1.1,0.2l1.4,2c0.2,0.3,0.1,0.8-0.2,1.1
		C68.1,32.8,67.6,32.7,67.4,32.3"/>
	<path class="st0" d="M19.1,35.8l4-12.8c1.3,0.5,2.6,0.9,2.6,0.9L24.6,15l-6.8,6c0.1,0.1,1.4,0.6,2.8,1.1L16.5,35L19.1,35.8z"/>
	<polygon class="st1" points="33.5,10.6 31.4,0 37.9,2.4 33.2,5.6 34.1,10.4 	"/>
	<path class="st1" d="M21.5,125.6c0.2-0.3,16.9-7.5,16.9-7.5s1-36.7,0.2-39.7c-2.7-10.1-5.7-10.3-12.9-15.8c-4.1-2.1-5,1.7-3.4,3.5
		c1.5,1.7,7.1,7.8,7.1,7.8S23.7,72,22.4,71c-0.7-0.6-3.5-2.7-5.8-4.6c-1.9-1.6-3.3-3.3-4.4-5.4c-0.9-1.6-1.2-3.2-1.9-4
		c-0.9-1.1-2.4-0.8-2.8,1.3c-0.7,3.6,2.9,9.3,2.9,9.3s-3.8-2.8-6.1-8.5c-0.3-0.7-1.1-1.5-1.8-1.5c-1.2,0-2.2,1.3-1.8,3.4
		c0.7,3.2,5.6,12.3,8.9,13.8c-2.1-0.6-3.4-0.8-7-4.2c-2.6-2.4-3,0.8-2,2.8c1.6,2.9,7.8,6.6,8.7,7.1c-0.7,0-2.9-0.2-4.7-0.9
		c-1.6-0.7-3.7,1.6-0.2,3.6c2.4,1.4,16.3,4.1,19.1,6.6c2.6,2.3,2,5.7,2.2,8.2C25.8,100.6,21.5,125.6,21.5,125.6"/>
	<path class="st1" d="M64.6,125.6l-16.9-7.5c0,0-1-36.7-0.2-39.7c2.7-10.1,5.7-10.3,12.9-15.8c4.1-2.1,5,1.7,3.4,3.5
		c-1.5,1.7-7.1,7.8-7.1,7.8s5.8-1.9,7.1-2.9c0.7-0.6,3.5-2.7,5.8-4.6c1.9-1.6,3.3-3.3,4.4-5.4c0.9-1.6,1.2-3.2,1.9-4
		c0.9-1.1,2.4-0.8,2.8,1.3c0.7,3.6-2.9,9.3-2.9,9.3s3.8-2.8,6.1-8.5c0.3-0.7,1.1-1.5,1.8-1.5c1.2,0,2.2,1.3,1.8,3.4
		c-0.6,3.2-5.6,12.3-8.9,13.8c2.2-0.6,3.4-0.8,7.1-4.2c2.6-2.4,3,0.8,2,2.8c-1.5,2.9-7.8,6.6-8.7,7.1c0.7,0,2.9-0.2,4.6-0.9
		c1.6-0.7,3.7,1.6,0.2,3.6c-2.4,1.4-16.3,4.1-19.1,6.6c-2.6,2.3-2,5.7-2.2,8.2C60.3,100.6,64.6,125.6,64.6,125.6"/>
	<path class="st1" d="M75.4,16.2c-0.4-2.9-6.5-3.4-9.8-3.1c-3.3,0.3-7.9,1.1-7.4,5.5c0.3,3.5,5.1,3.7,6.8,3.6
		c0.7,2.9,4.3,4.6,5.9,3.9c-2.2-1.1-2.9-3-3-4.1l1.4-0.1C73.7,21.8,75.7,19.2,75.4,16.2"/>
	<path class="st1" d="M19.9,45.3c-0.4,0.7-5.2,2.9-5.2,2.9s5.4,6.3,5.1,6.3c-0.3,0.1-4.4-0.1-4.4-0.1l4.3,7.3l-9.5-9.3
		c0,0,5.1-0.1,4.9,0C14.9,52.5,9.7,46,9.7,46l8.8-1.2L19.9,45.3z"/>
	<path class="st0" d="M3.8,40.7c-5.5,0.4-4.8,8.5,0.6,8.5h18.8c4.6,0,4.9-6.5,0.1-6.5c-0.3-3-4-3.3-4.9-0.5c-0.2-5.7-6.3-5.3-7-1.6
		C11.3,36.4,4.4,35.6,3.8,40.7"/>
	<path class="st1" d="M50.8,36.5c0,0-6.3-11.2-10.6-18.7l-0.8,4l-2.2-3.5l-0.7,5.6l-3-5l-0.8,4.6l-2-3.9c-1.1,8-2.7,20.2-2.9,20.9
		L50.8,36.5z"/>
	<path class="st0" d="M37.5,12.7c-1.3-2.3-2.4-2.9-3.5-2.6c-1.1,0.2-2.2,0.7-2.6,3.6c-0.2,1.3-0.5,3.3-0.6,5.9l0,0l2,3.9l0.8-4.6
		l3,5l0.7-5.6l2.2,3.5l0.8-4l0,0C40.3,17.8,38.8,15,37.5,12.7"/>
	<g>
		<path class="st1" d="M107.2,29.4h-4v-6.8h18.7c7.8,0,13.4,4,13.4,11.1c0,4.8-2.6,7.9-5.2,9.3v0.1c4.7,1.4,6.9,5.8,6.9,10.2
			c0,8.6-6.9,12.5-14.9,12.5h-10.8c-2.9,0-4.1-1.2-4.1-4.1V29.4z M122,40.3c3.3,0,5.2-2.4,5.2-5.5c0-3.1-1.8-5.4-5.4-5.4h-6.7v10.9
			H122z M116.5,59.1h6.2c3.9,0,6.1-2.6,6.1-6.3c0-3.6-2.3-6.2-6.1-6.2h-7.6v11.1C115.1,58.6,115.6,59.1,116.5,59.1z"/>
		<path class="st1" d="M145,30.7c0-0.9-0.5-1.3-1.3-1.3h-2.6v-6.8h7.8c2.9,0,4.1,1.3,4.1,4.1v23.4c0,5.7,3.6,9,9,9s9-3.3,9-9V26.8
			c0-2.9,1.2-4.1,4.1-4.1h7.8v6.8h-2.6c-0.9,0-1.3,0.5-1.3,1.3v19.7c0,9.6-6.8,16.1-16.9,16.1c-10.3,0-17.1-6.6-17.1-16.1V30.7z"/>
		<path class="st1" d="M190.6,29.4h-4v-6.8H206c7.9,0,13.5,4.9,13.5,13c0,7.8-5.4,11-7.2,11.4v0.1c0,0,1.3,0.6,2.1,2.2l4.2,8.3
			c0.7,1.3,1.7,1.4,3,1.4h0.8v6.8h-4.2c-3.2,0-4.6-0.5-6-3.2l-5.5-10.9c-0.9-1.7-1.8-2-4.1-2h-4v16.1h-8V29.4z M204.9,42.9
			c4,0,6.4-2.5,6.4-6.8c0-4.3-2.4-6.7-6.3-6.7h-6.5v13.5H204.9z"/>
		<path class="st1" d="M247,21.9c12.7,0,22.3,9.7,22.3,22c0,12.7-9.6,22.7-22.3,22.7c-12.7,0-22.3-9.9-22.3-22.7
			C224.7,31.6,234.3,21.9,247,21.9z M247,59.2c7.8,0,14.1-6.6,14.1-15.2c0-8.3-6.3-14.6-14.1-14.6S233,35.7,233,44
			C233,52.6,239.2,59.2,247,59.2z"/>
	</g>
	<g>
		<path class="st1" d="M129.1,71.5c14.7,0,25.8,11.2,25.8,25.5c0,14.7-11.1,26.2-25.8,26.2c-14.7,0-25.8-11.5-25.8-26.2
			C103.3,82.7,114.4,71.5,129.1,71.5z M129.1,114.6c9,0,16.3-7.6,16.3-17.6c0-9.6-7.3-16.9-16.3-16.9s-16.3,7.3-16.3,16.9
			C112.9,107,120.1,114.6,129.1,114.6z"/>
		<path class="st1" d="M171,113.3l-6.8,16.5h-6.5l4.7-16.5H171z"/>
		<path class="st1" d="M176,116.5l22.5-31.8c2-2.8,3.8-4.5,3.8-4.5v-0.1c0,0-1.5,0.1-3.8,0.1h-12.1c-1,0-1.5,0.6-1.5,1.5v3h-8.4
			v-7.6c0-3.3,1.4-4.8,4.8-4.8h32.5v5.8L191.2,110c-2,2.9-3.8,4.5-3.8,4.5v0.1c0,0,1.5-0.1,3.8-0.1h13.7c1,0,1.5-0.6,1.5-1.5v-3h8.3
			v7.6c0,3.4-1.4,4.8-4.8,4.8H176V116.5z"/>
		<path class="st1" d="M244.2,71.5c14.7,0,25.8,11.2,25.8,25.5c0,14.7-11.1,26.2-25.8,26.2c-14.7,0-25.8-11.5-25.8-26.2
			C218.4,82.7,229.5,71.5,244.2,71.5z M244.2,114.6c9,0,16.3-7.6,16.3-17.6c0-9.6-7.3-16.9-16.3-16.9s-16.3,7.3-16.3,16.9
			C227.9,107,235.2,114.6,244.2,114.6z"/>
	</g>
</g>
</svg>
