<?xml version="1.0" encoding="utf-8"?>
<!-- Generator: Adobe Illustrator 27.0.0, SVG Export Plug-In . SVG Version: 6.00 Build 0)  -->
<svg version="1.1" id="Layer_1" xmlns="http://www.w3.org/2000/svg" xmlns:xlink="http://www.w3.org/1999/xlink" x="0px" y="0px"
	 viewBox="0 0 715 200" style="enable-background:new 0 0 715 200;" xml:space="preserve">
<style type="text/css">
	.st0{fill:#9E9E9E;}
	.st1{fill:#E2E2E2;}
	.st2{fill-rule:evenodd;clip-rule:evenodd;fill:#9E9E9E;}
</style>
<path class="st0" d="M106.6,64.2c0-16.7-8.3-25.5-28.2-25.5H53V90h25.4C98.3,90,106.6,81.5,106.6,64.2z M162.2,64.8
	c0,20.6-10.3,34.8-29.5,45.8l42.5,85h-59.6l-34-70.5H53v70.5H0V3.6h86.7C138.7,3.6,162.2,28.6,162.2,64.8z M556.4,4.1l-20.7,40.6
	h67.7V196h53.3V44.6H715V4.1H556.4z"/>
<path class="st1" d="M510,3.8h29L424.9,97.3V64.8L510,3.8L510,3.8z"/>
<path class="st0" d="M509.7,3.8H540l-44,85.7l-48,21.8C448,111.3,509.7,3.8,509.7,3.8z"/>
<path class="st1" d="M447.9,111.3l48-21.8l52.3,105.8h-59.8L447.9,111.3L447.9,111.3z"/>
<path class="st0" d="M425.9,4h-53v191.7h53V4z"/>
<path class="st2" d="M266.1,0c-27.4,0-49.5,9-66,26.9s-24.9,42-24.9,72.9v0.6c0,31,8.3,55.4,24.9,73.2c16.6,17.8,38.7,26.6,66,26.6
	s49.4-8.8,65.7-26.6c16.6-17.8,24.9-42.2,24.9-73.2v-0.6c0-31-8.3-55.1-24.9-72.9C315.5,9.1,293.4,0,266.1,0z M265.8,39
	c-11.2,0-20.2,5.7-26.9,16.8c-6.8,11.1-10.1,26.2-10.1,45.6v0.3c0,19.4,3.4,34.6,10.1,45.8c6.8,11.1,15.8,16.6,26.9,16.6
	s20.2-5.5,26.8-16.6s10.1-26.4,10.1-45.8v-0.3c0-19.4-3.4-34.4-10.1-45.6S277,39,265.8,39L265.8,39z"/>
</svg>
