<?xml version="1.0" encoding="utf-8"?>
<!-- Generator: Adobe Illustrator 27.0.0, SVG Export Plug-In . SVG Version: 6.00 Build 0)  -->
<svg version="1.1" id="Layer_1" xmlns="http://www.w3.org/2000/svg" xmlns:xlink="http://www.w3.org/1999/xlink" x="0px" y="0px"
	 viewBox="0 0 164 37" style="enable-background:new 0 0 164 37;" xml:space="preserve">
<style type="text/css">
	.st0{fill-rule:evenodd;clip-rule:evenodd;fill:#9E9E9E;}
	.st1{fill-rule:evenodd;clip-rule:evenodd;fill:#E2E2E2;}
</style>
<g>
	<path class="st0" d="M148.6,36.4l2.7-7.9h3.2l2.9,8.1h-3.1l-0.3-1h-2.2l-0.2,1h-6.1l-0.3-1h-2.2l-0.2,1h-3.1l2.8-8.1h3.2
		L148.6,36.4z M7.7,32.6v0.3c0,2.2-1.5,3.8-3.7,3.8s-4-1.9-4-4.1c0-2.3,1.8-4.1,4.1-4.1c1.2,0,2.4,0.6,3.2,1.5l-0.7,0.7
		c-0.6-0.8-1.5-1.3-2.5-1.3c-1.8,0-3.1,1.4-3.1,3.2c0,1.6,1.4,3.2,3,3.2c1.2,0,2.5-1.1,2.6-2.3h-2v-0.9H7.7z M8.5,28.7h4.2v0.9H9.5
		v2.2h3.1v0.9H9.5v3h3.2v0.9H8.5C8.5,36.5,8.5,28.7,8.5,28.7z M15.3,31.3L15.3,31.3l-0.9,5.2h-1l1.6-8.2l2.7,6.2l2.7-6.2l1.6,8.2h-1
		L20,31.3h0l-2.4,5.4L15.3,31.3L15.3,31.3z M22.8,28.7H27v0.9h-3.2v2.2h3.1v0.9h-3.1v3H27v0.9h-4.2C22.8,36.5,22.8,28.7,22.8,28.7z
		 M28.4,28.7h4.2v0.9h-3.2v2.2h3.1v0.9h-3.1v3h3.2v0.9h-4.2L28.4,28.7L28.4,28.7z M33.8,28.3l5.9,6.2v-5.8h1v8.2l-5.9-6.2v5.9h-1
		V28.3z M44.2,36.5h-1v-7h-1.9v-0.9H46v0.9h-1.9V36.5z M46.7,28.7h4.2v0.9h-3.2v2.2h3.1v0.9h-3.1v3h3.2v0.9h-4.2
		C46.7,36.5,46.7,28.7,46.7,28.7z M93.5,28.5l-3.1,8.1h-2.5l-3.1-8.1h3.1l1.1,3.7c0.1,0.4,0.2,0.8,0.2,1.2h0.1
		c0-0.4,0.1-0.8,0.2-1.2l1.1-3.7C90.4,28.5,93.5,28.5,93.5,28.5z M93.9,28.5h5.4v2.2h-2.5v0.8h2.3v2.1h-2.3v0.8h2.6v2.2h-5.5
		L93.9,28.5L93.9,28.5z M100.5,28.5h5.4v2.2h-2.5v0.8h2.3v2.1h-2.3v0.8h2.6v2.2h-5.5V28.5z M107,28.5h2.8l2.6,4.5h0.1
		c-0.1-0.7-0.2-1.4-0.2-2.1v-2.4h2.8v8.1h-2.8l-2.6-4.2h-0.1c0.1,0.6,0.2,1.1,0.2,1.6v2.6H107V28.5z M116.4,28.5h5.4v2.2h-2.5v0.8
		h2.3v2.1h-2.3v0.8h2.6v2.2h-5.5V28.5z M122.9,28.5h2.8l2.6,4.5h0.1c-0.1-0.7-0.2-1.4-0.2-2.1v-2.4h2.8v8.1h-2.8l-2.6-4.2h-0.1
		c0.1,0.6,0.2,1.1,0.2,1.6v2.6h-2.8L122.9,28.5L122.9,28.5z M132.3,28.5h3c2.7,0,4.8,1.2,4.8,4.1c0,2.4-1.7,3.9-4,3.9h-3.7V28.5z
		 M135.2,34.1h0.2c1,0,1.7-0.5,1.7-1.5c0-1.1-0.7-1.6-1.7-1.6h-0.2V34.1z M144.8,33.6l-0.3-1.4c-0.1-0.3-0.1-0.7-0.2-1h-0.1
		l-0.5,2.5L144.8,33.6L144.8,33.6z M153.6,33.6l-0.3-1.4c-0.1-0.3-0.1-0.7-0.2-1H153l-0.5,2.5L153.6,33.6L153.6,33.6z M158,28.5h2.9
		V34h2.5v2.6H158C158,36.5,158,28.5,158,28.5z"/>
	<path class="st0" d="M83.7,24.4v0.3l-13.4,0l6.9,11.6l-0.5,0.3l0,0h0l-0.1,0.1l0-0.1h-18L42.2,8.2h18.2l2.4,4.2l0.3-0.2l6.6,11.4
		c4.1-2.5,6.6-6.6,6.6-11.4h0.5v0c0-5.2-2.8-9.7-7-12.2h18.1c4.3,2.5,7,7.1,7,12.2c0,5-2.7,9.7-7,12.2
		C87.8,24.4,83.7,24.4,83.7,24.4z M70.4,24c0.2-0.1,0.3-0.2,0.5-0.3C70.7,23.8,70.5,23.9,70.4,24L70.4,24L70.4,24z"/>
	<path class="st1" d="M76.7,36.5c4.2-2.4,7-6.9,7-12.1l-14,0L76.7,36.5z"/>
	<path class="st1" d="M69.7,24.4c4.1-2.4,7.1-6.9,7.1-12.1l-14.1,0L69.7,24.4z"/>
</g>
</svg>
