<?xml version="1.0" encoding="utf-8"?>
<!-- Generator: Adobe Illustrator 27.0.0, SVG Export Plug-In . SVG Version: 6.00 Build 0)  -->
<svg version="1.1" id="Layer_1" xmlns="http://www.w3.org/2000/svg" xmlns:xlink="http://www.w3.org/1999/xlink" x="0px" y="0px"
	 viewBox="0 0 600 90.3" style="enable-background:new 0 0 600 90.3;" xml:space="preserve">
<style type="text/css">
	.st0{fill:#9E9E9E;}
	.st1{fill:#E2E2E2;}
</style>
<g>
	<g id="woordmerk">
		<path class="st0" d="M113.6,19.4l-0.1-3h0.8c0.2,2.2,1.2,3,3.1,3c2.1,0.1,3.3-2.2,2.9-3.6c-0.3-1.3-1.2-1.9-2.9-2.8
			c-2.2-1.1-3.6-2.4-3.7-4.4c-0.2-2.5,2-5,8-3.7l0.2,2.7h-0.8c-0.4-1.7-1.1-2-2.5-2.2c-1.2-0.1-2.4,0.4-2.8,1.3
			c-0.9,2,0.8,3.1,2.9,4.2c3.5,1.9,3.9,3.4,3.9,5C122.5,18.6,118.7,21.7,113.6,19.4"/>
		<path class="st0" d="M130.5,16.6V6.1h-2.2V5.3c1.7,0,2.9-1.4,3.4-3.4h1v3h5.1v1.2h-5.1v9.5c0,2.4,0,4.6,5.1,2.3l0.3,0.8
			C131.2,22.5,130.5,18.2,130.5,16.6"/>
		<path class="st0" d="M148,7v10.4c0,1.4,0.1,1.7,1.7,1.7v0.7l-2.2-0.1h-1.5l-2.1,0.1v-0.7c1.7,0,1.8-0.4,1.8-1.7V7.2
			c0-1.1-0.2-1.5-1.8-1.5V4.9l2.1,0h1.5l2.2,0v0.7C148.5,5.6,148,5.9,148,7"/>
		<path class="st0" d="M169.1,19.1c-0.6,0.3-3,1-5.2,1c-5.1,0-8-3.4-8-7.6c0-4.4,3.6-7.1,6.4-7.5c2.9-0.5,5.6,0,6.8,0.8l0.1,2.9
			h-0.8c-0.6-2.6-2.5-2.9-4.4-3c-3.3-0.1-6.1,2.4-5.9,6.7c0.2,3.9,3,6.8,5.7,6.8c1.2,0,4.4-0.2,4.8-3h0.8"/>
		<path class="st0" d="M189.7,19.7h-1.5l-1.9,0.1v-0.7c1.3,0,1.5-0.2,1.5-1.7v-4.8h-8.8v4.6c0,1.4,0.2,1.8,1.7,1.8v0.7l-2.2-0.1H177
			l-2,0.1v-0.7c1.5,0,1.8-0.4,1.8-1.7V7.1c0-1.2-0.2-1.5-1.7-1.5V4.9l2.3,0h1.5l1.7,0v0.7c-1.7,0-1.6,0.5-1.6,1.4v4.6h8.8V7
			c0-1.1-0.2-1.4-1.7-1.4V4.9l1.8,0h1.5l2.2,0v0.7c-1.7,0-1.7,0.5-1.7,1.3v10.6c0,1.3,0.1,1.7,1.7,1.7v0.7"/>
		<path class="st0" d="M199.4,16.6V6.1h-2.2V5.3c1.7,0,2.9-1.4,3.4-3.4h1v3h5.1v1.2h-5.1v9.5c0,2.4,0,4.6,5.1,2.3l0.3,0.8
			C200.1,22.5,199.4,18.2,199.4,16.6"/>
		<path class="st0" d="M217,7v10.4c0,1.4,0.1,1.7,1.7,1.7v0.7l-2.2-0.1h-1.5l-2.1,0.1v-0.7c1.7,0,1.8-0.4,1.8-1.7V7.2
			c0-1.1-0.2-1.5-1.8-1.5V4.9l2.1,0h1.5l2.2,0v0.7C217.4,5.6,217,5.9,217,7"/>
		<path class="st0" d="M240.1,7.7v12.1h-1c-1.2-1.4-9.6-10.4-10.4-11.7v7.9c0,2.6,0.3,3,2.2,3v0.7l-2-0.1h-1.5l-2,0.1v-0.7
			c1.7,0,2-0.5,2-3.1V8.1c0-2.1-0.4-2.5-2.4-2.5V4.9l1.9,0h1.8c1,1.3,9.3,10.1,10.1,11.3V7.7c0-1.6-0.5-2-2-2V4.9l1.9,0h1.5l1.9,0
			v0.7C240.3,5.6,240.1,6.1,240.1,7.7"/>
		<path class="st0" d="M259.8,21.7c0,2.7-1.8,4.2-4.7,4.4c-2.9,0.1-6.3-1-5.5-3.4c0.5-1.4,3.5-2.4,6.2-2.3c2.1,0.1,3.7-0.2,4.1-0.5
			V21.7 M262.2,20.8v-3.4h-0.8c-2.2,2-3.5,1.9-5.1,1.8c-3.2-0.3-5.4-3.1-5.7-6.9c-0.3-4.3,2.5-6.8,5.9-6.7c1.9,0,3.7,0.4,4.6,3h0.8
			l-0.1-2.9c-1.4-0.7-4.2-1.3-7-0.8c-2.8,0.5-6.5,3.2-6.5,7.4c0,3.3,1.5,6.2,4.7,7.2c-2.6,0.1-5,1.2-5.6,2.9
			c-1.1,3.1,3.6,4.9,7.1,4.8C259.3,27.2,262.2,24.6,262.2,20.8"/>
		<path class="st0" d="M294.9,19.7h-1.5l-1.9,0.1v-0.7c1.3,0,1.5-0.2,1.5-1.7v-4.8h-8.8v4.6c0,1.4,0.2,1.8,1.7,1.8v0.7l-2.2-0.1
			h-1.5l-2,0.1v-0.7c1.5,0,1.8-0.4,1.8-1.7V7.1c0-1.2-0.2-1.5-1.7-1.5V4.9l2.3,0h1.5l1.7,0v0.7c-1.7,0-1.6,0.5-1.6,1.4v4.6h8.8V7
			c0-1.1-0.2-1.4-1.7-1.4V4.9l1.8,0h1.5l2.2,0v0.7c-1.7,0-1.7,0.5-1.7,1.3v10.6c0,1.3,0.1,1.7,1.7,1.7v0.7"/>
		<path class="st0" d="M313.3,9.9c0,1.1-0.6,1.3-3,1.3h-4.8c0-3,1.8-5.3,4-5.4C311.8,5.7,313.4,8.1,313.3,9.9 M315.7,18.5l-0.3-0.7
			c-8.3,3.4-9.9-2.5-10-5.5c2.7,0,6.7-0.1,9.3,0c0.5,0,0.8,0.2,0.8-0.9c0.1-3.4-2.2-6.5-6-6.4c-3.5,0-6.6,3-6.6,8
			C303,17,306.6,22.9,315.7,18.5"/>
		<path class="st0" d="M323.2,16.6V6.1H321V5.3c1.7,0,2.9-1.4,3.4-3.4h1v3h5.1v1.2h-5.1v9.5c0,2.4,0,4.6,5.1,2.3l0.3,0.8
			C323.9,22.5,323.2,18.2,323.2,16.6"/>
		<path class="st0" d="M363.9,7.7v12.1h-1c-1.2-1.4-9.6-10.4-10.4-11.7v7.9c0,2.6,0.3,3,2.2,3v0.7l-2-0.1h-1.5l-2,0.1v-0.7
			c1.7,0,2-0.5,2-3.1V8.1c0-2.1-0.4-2.5-2.4-2.5V4.9l1.9,0h1.8c1,1.3,9.3,10.1,10.1,11.3V7.7c0-1.6-0.5-2-2-2V4.9l1.9,0h1.5l1.9,0
			v0.7C364.1,5.6,363.9,6.1,363.9,7.7"/>
		<path class="st0" d="M380.6,17.2c-5,3.3-6.3,0.5-6.3-1.1c0-2,2.3-3.3,6.3-3.3V17.2 M385.9,18.7l-0.4-0.5c-0.5,0.4-1.1,0.7-1.4,0.7
			c-1.2,0.2-1.1-1-1.1-2.4V8.1c0-2.2-1.4-3.4-3.6-3.4c-2.5,0-5.1,1.4-6.2,2.8c-0.5,0.7-0.9,2.1,0.1,2.1c0.3,0,1.5-0.3,1.5-0.8
			c0-1.5,1.5-3,3.8-3c1.5,0,2,0.8,2,3v2.9c-5.7,0-8.5,2.4-8.7,4.8c-0.2,2.3,2.4,6.2,8.8,1.7c0,1.3,1.1,2,2.4,2
			C384.1,20.2,385,19.5,385.9,18.7"/>
		<path class="st0" d="M392.9,16.6V6.1h-2.2V5.3c1.7,0,2.9-1.4,3.4-3.4h1v3h5.1v1.2h-5.1v9.5c0,2.4,0,4.6,5.1,2.3l0.3,0.8
			C393.5,22.5,392.9,18.2,392.9,16.6"/>
		<path class="st0" d="M410.4,7v10.4c0,1.4,0.1,1.7,1.7,1.7v0.7l-2.2-0.1h-1.5l-2.1,0.1v-0.7c1.7,0,1.8-0.4,1.8-1.7V7.2
			c0-1.1-0.2-1.5-1.8-1.5V4.9l2.1,0h1.5l2.2,0v0.7C410.8,5.6,410.4,5.9,410.4,7"/>
		<path class="st0" d="M431.3,11.6c0.5,3.8-1.4,7.1-4.3,7.5c-2.9,0.4-5.7-2.4-6.1-6.1c-0.5-3.8,1.4-7.1,4.3-7.5
			C428.1,5.2,430.8,7.9,431.3,11.6 M433.9,12.3c0-4.3-3.5-7.8-7.8-7.8c-4.3,0-7.8,3.5-7.8,7.8c0,4.3,3.5,7.8,7.8,7.8
			C430.4,20.2,433.9,16.7,433.9,12.3"/>
		<path class="st0" d="M455.1,7.7v12.1h-1c-1.2-1.4-9.6-10.4-10.4-11.7v7.9c0,2.6,0.3,3,2.2,3v0.7l-2-0.1h-1.5l-2,0.1v-0.7
			c1.7,0,2-0.5,2-3.1V8.1c0-2.1-0.4-2.5-2.4-2.5V4.9l1.9,0h1.8c1,1.3,9.3,10.1,10.1,11.3V7.7c0-1.6-0.5-2-2-2V4.9l1.9,0h1.5l1.8,0
			v0.7C455.3,5.6,455.1,6.1,455.1,7.7"/>
		<path class="st0" d="M471.8,17.2c-5,3.3-6.3,0.5-6.3-1.1c0-2,2.3-3.3,6.3-3.3V17.2 M477.1,18.7l-0.4-0.5c-0.5,0.4-1.1,0.7-1.4,0.7
			c-1.2,0.2-1.1-1-1.1-2.4V8.1c0-2.2-1.4-3.4-3.6-3.4c-2.5,0-5.1,1.4-6.2,2.8c-0.5,0.7-0.8,2.1,0.1,2.1c0.3,0,1.6-0.3,1.6-0.8
			c0-1.5,1.5-3,3.8-3c1.5,0,2,0.8,2,3v2.9c-5.7,0-8.5,2.4-8.7,4.8c-0.2,2.3,2.4,6.2,8.8,1.7c0,1.3,1.1,2,2.4,2
			C475.3,20.2,476.1,19.5,477.1,18.7"/>
		<path class="st0" d="M492.9,19.8l-3-0.1h-4.8l-2.6,0.1v-0.7c1.8,0,1.9-0.4,1.9-1.8V2.9c0-1.7-0.1-2.2-1.6-2.2V0l2,0h1.5l2.2,0v0.7
			c-1.4,0-1.9,0.3-1.9,2v14.1c0,1.9,0.7,2.2,2.6,2.2c1.9,0,3.2-0.3,3.7-2.5l0.6,0.2"/>
		<path class="st0" d="M508.8,9.9c0,1.1-0.6,1.3-3,1.3H501c0-3,1.8-5.3,4-5.4C507.3,5.7,508.9,8.1,508.8,9.9 M511.2,18.5l-0.3-0.7
			c-8.3,3.4-9.9-2.5-9.9-5.5c2.7,0,6.8-0.1,9.3,0c0.5,0,0.8,0.2,0.8-0.9c0.1-3.4-2.2-6.5-6-6.4c-3.5,0-6.6,3-6.6,8
			C498.5,17,502.1,22.9,511.2,18.5"/>
		<path class="st0" d="M535.9,14.8c-0.6,0.1-0.9,0.1-1.8,0V14c2.5,0.1,3.9-1.8,3.9-4.2c0-2.2-1.8-4.4-4.8-4.1v15.9
			c0,1.7,0.2,2.3,2,2.3v0.7l-2.4-0.1h-1.5l-2.4,0.1v-0.7c1.8,0,2-0.3,2-2.3V7.4c0-1.5-0.1-1.8-1.9-1.8V4.9l2,0l2.3,0
			c4.6,0,6.7,1.9,6.9,4.7C540.6,11.9,538.4,14.6,535.9,14.8"/>
		<path class="st0" d="M555.3,17.2c-5.1,3.3-6.3,0.5-6.3-1.1c0-2,2.3-3.3,6.3-3.3V17.2 M560.6,18.7l-0.4-0.5
			c-0.5,0.4-1.1,0.7-1.4,0.7c-1.2,0.2-1.1-1-1.1-2.4V8.1c0-2.2-1.3-3.4-3.6-3.4c-2.5,0-5.1,1.4-6.2,2.8c-0.5,0.7-0.8,2.1,0.1,2.1
			c0.3,0,1.6-0.3,1.6-0.8c0-1.5,1.5-3,3.8-3c1.5,0,2,0.8,2,3v2.9c-5.7,0-8.5,2.4-8.7,4.8c-0.2,2.3,2.4,6.2,8.8,1.7
			c0,1.3,1.1,2,2.3,2C558.8,20.2,559.7,19.5,560.6,18.7"/>
		<path class="st0" d="M575,9.2c0.1,2.2-1.3,3.6-5.1,3.5V5.8C573,5.3,574.9,6.6,575,9.2 M580.8,19.8v-0.7c-2.5-0.3-4.4-3.5-6.6-6
			c1.2-0.6,2.9-1.6,2.9-3.9c-0.1-3.2-2.5-4.5-6.8-4.3l-2,0.1l-2.2,0v0.7c1.3,0,1.7,0.2,1.7,1.9v9.9c0,1.5-0.2,1.7-1.7,1.7v0.7
			l1.9-0.1h1.5l2.5,0.1v-0.7c-1.9,0-2.1-0.3-2.1-1.8v-3.6c0.7,0,1.6,0,2.1-0.1c1.2,1.3,3.8,6.4,7.7,6.2L580.8,19.8z"/>
		<path class="st0" d="M599,19.9c-4.2,0.2-8.6-6.1-9.8-7.6v5c0,1.6,0.2,1.9,1.7,1.9v0.7l-1.9-0.1h-1.5l-2,0.1v-0.7
			c1.3,0,1.5-0.2,1.5-1.4V2.3c0-1.3,0.2-1.7-1.5-1.7V0l2,0h1.5l1.8,0v0.7c-1.5,0-1.6,0.3-1.6,1.8v9.3c1.8-1.5,3.6-3.1,5.5-5
			c0.9-0.8,0.9-1.2-0.5-1.2V4.9l1.9,0h1.5l1.5,0l0,0.7c-0.8,0-1.5,0.2-3,1.5l-4.7,4.4c4.7,6.1,7.3,7.5,8.8,7.6v0.7"/>
		<path class="st0" d="M141.2,57.6c0.1,9.1-6.9,14.1-12.9,14.1c-4.3,0-6.2-0.6-6.2-4.4V42.9c2.5-0.2,3.5-0.2,5.4-0.2
			C135.6,42.7,141,48.8,141.2,57.6 M146.4,55.9c-1.3-11.5-10.2-15.2-18.7-15.2l-7.6,0.1l-6.6-0.1v1.5c3,0,3.9,0.2,3.9,3v22.8
			c0,3.1-0.3,4-3.9,4v1.5l7.4-0.2l7.9,0.2C138.4,73.8,147.7,67,146.4,55.9"/>
		<path class="st0" d="M175.6,51.8c-0.1,2.4-1.4,2.8-6.6,2.8h-10.6c0-6.7,4-11.7,8.8-11.8C172.2,42.6,175.8,47.8,175.6,51.8
			 M180.9,70.7l-0.6-1.6c-18.3,7.4-21.9-5.5-22-12.2c6-0.1,14.9-0.2,20.5-0.1c1.1,0,1.7,0.3,1.8-2c0.3-7.5-4.9-14.4-13.3-14.2
			c-7.8,0.1-14.5,6.7-14.5,17.6C152.8,67.5,160.7,80.4,180.9,70.7"/>
		<path class="st0" d="M239.4,73.5h-3.2l-4.3,0.2v-1.5c2.8,0,3.3-0.5,3.3-3.7V57.9h-19.5v10.2c0,3.1,0.3,4,3.7,4v1.5l-4.8-0.2h-3.2
			l-4.4,0.2v-1.5c3.4,0,3.9-0.8,3.9-3.8V45.5c0-2.6-0.5-3.2-3.7-3.2v-1.5l5.1,0.1h3.3l3.7-0.1v1.5c-3.7,0-3.6,1-3.6,3.2v10h19.5
			V45.4c0-2.5-0.3-3.1-3.7-3.1v-1.5l3.9,0.1h3.4l4.9-0.1v1.5c-3.7,0-3.7,1-3.7,2.8v23.3c0,2.8,0.3,3.7,3.8,3.7v1.5"/>
		<path class="st0" d="M279.3,55.6c1.1,8.3-3.1,15.8-9.5,16.6c-6.5,0.8-12.5-5.2-13.5-13.5c-1.1-8.4,3.1-15.7,9.5-16.5
			C272.2,41.3,278.3,47.3,279.3,55.6 M285,57.1c0-9.5-7.7-17.2-17.3-17.2c-9.5,0-17.2,7.7-17.2,17.2c0,9.5,7.7,17.3,17.2,17.3
			C277.3,74.4,285,66.7,285,57.1"/>
		<path class="st0" d="M317.5,77.8c0,5.9-4,9.3-10.5,9.6c-6.4,0.3-14-2.1-12.2-7.5c1.1-3.1,7.8-5.2,13.6-5c4.6,0.2,8.1-0.5,9-1.1
			L317.5,77.8 M322.9,75.8v-7.4h-1.7c-4.8,4.3-7.8,4.2-11.2,4c-7-0.6-12-6.9-12.6-15.2c-0.7-9.5,5.5-15.1,12.9-14.9
			c4.2,0.1,8.3,0.9,10,6.6h1.7l-0.3-6.3c-3.1-1.6-9.2-2.8-15.5-1.8c-6.2,1.1-14.3,7-14.3,16.4c0,7.2,3.4,13.6,10.3,16
			c-5.7,0.3-11.1,2.7-12.4,6.5c-2.5,6.9,8,10.8,15.6,10.6C316.5,90,322.9,84.2,322.9,75.8"/>
		<path class="st0" d="M352,51.8c-0.1,2.4-1.4,2.8-6.6,2.8h-10.6c0-6.7,4-11.7,8.8-11.8C348.6,42.6,352.2,47.8,352,51.8 M357.3,70.7
			l-0.6-1.6c-18.3,7.4-21.9-5.5-22-12.2c6-0.1,14.9-0.2,20.5-0.1c1.1,0,1.7,0.3,1.8-2c0.3-7.5-4.9-14.4-13.3-14.2
			c-7.7,0.1-14.5,6.7-14.5,17.6C329.3,67.5,337.1,80.4,357.3,70.7"/>
		<path class="st0" d="M408.8,46.7l-10.6,27.4h-2.7l-10.6-27.9c-0.9-2.6-1.8-3.9-4.8-3.9v-1.5l4.8,0.1h2.8l4.7-0.1v1.5
			c-2.8,0-3.8,0.3-2.8,3.2l8.1,22.4l8.3-22.1c1-2.7,0.7-3.5-2.1-3.5v-1.5h2.6l3.3,0.1l3-0.1v1.5C410.7,42.3,410.1,43.4,408.8,46.7"
			/>
		<path class="st0" d="M438.7,51.8c-0.1,2.4-1.4,2.8-6.6,2.8h-10.6c0-6.7,4-11.7,8.8-11.8C435.3,42.6,438.9,47.8,438.7,51.8
			 M444,70.7l-0.6-1.6c-18.3,7.4-21.9-5.5-22-12.2c6-0.1,14.9-0.2,20.5-0.1c1.1,0,1.7,0.3,1.8-2c0.3-7.5-4.9-14.4-13.3-14.2
			c-7.7,0.1-14.5,6.7-14.5,17.6C416,67.5,423.8,80.4,444,70.7"/>
		<path class="st0" d="M473.4,73.6l-6.6-0.2h-10.6l-5.7,0.2v-1.5c4,0,4.3-0.9,4.3-4V36.3c0-3.7-0.3-4.9-3.6-4.9v-1.5l4.5,0.1h3.3
			l4.9-0.1v1.5c-3.1,0-4.1,0.6-4.1,4.4V67c0,4.2,1.5,4.8,5.6,4.8c4.3,0.1,7.1-0.6,8.3-5.6l1.4,0.3"/>
		<path class="st0" d="M508.9,46.8v14.3c0,9.5-5.8,13.5-13.1,13.5c-7.4-0.1-13-3.4-13-12.4V46.2c0-2.7,0.3-3.9-3.2-3.9v-1.5l4.8,0.1
			h3.3l3.5-0.1v1.5c-3,0-3.4,0.7-3.4,3.5v17.1c0,5.8,3.1,8.9,8.9,8.9c5.7,0,9.1-4.5,9.1-9.1V46.7c0-4.1-0.3-4.3-3.9-4.3v-1.5
			l4.3,0.1h3.2l2.8-0.1v1.5C509.7,42.3,508.9,42.7,508.9,46.8"/>
		<path class="st0" d="M565.9,46.1l-10.9,28h-2.6l-8.9-23.3l-8.9,23.3h-2.7l-10.6-27.9c-0.9-2.6-1.5-3.9-4.7-3.9l-0.1-1.5l4.9,0.1
			h2.8l4.7-0.1v1.5c-2.8,0-3.8,0.3-2.8,3.2l8.2,22.3l6.1-16.3c2.4-6.6,0.7-9.3-3.3-9.3l-0.1-1.5l5.1,0.1h4.3l3.7-0.1v1.5
			c-2.6,0-4.2,1.1-3.2,3.7l7.8,22l8.3-22c0.9-2.6,1-3.7-2.9-3.7v-1.5l4.2,0.1h2.6l3-0.1v1.5C567.7,42.3,567.3,42.7,565.9,46.1"/>
		<path class="st0" d="M594.7,51.8c-0.1,2.4-1.4,2.8-6.6,2.8h-10.6c0-6.7,4-11.7,8.8-11.8C591.3,42.6,594.9,47.8,594.7,51.8
			 M600,70.7l-0.6-1.6c-18.3,7.4-21.9-5.5-22-12.2c6-0.1,14.9-0.2,20.5-0.1c1.1,0,1.7,0.3,1.8-2c0.3-7.5-4.9-14.4-13.3-14.2
			c-7.7,0.1-14.5,6.7-14.5,17.6C572,67.5,579.8,80.4,600,70.7"/>
	</g>
	<g id="beeldmerk">
		<polygon class="st1" points="35.7,59.1 24.7,59.1 24.7,65.4 35.6,65.4 35.7,65.4 46.6,65.4 46.6,59.1 		"/>
		<path class="st1" d="M53.8,28.3H45h-1.6v0.9h-1.7v-4.7h-0.4H29.5v4.7h-1.7v-0.9h-1.5h-8.8L9.5,42v6.5c0,0,2.4,0,5.4,0V55h9.9v1.9
			h3.1V45.4h-9.4c1.2-2.1,3-5,3.7-6.3v4.8h7.4v11.5h12.2V43.8h7.4v-4.8c0.7,1.3,2.5,4.2,3.7,6.3h-9.4v11.5h3.1V55h9.9v-6.5h5.4V42
			L53.8,28.3z M24.7,48.5v3.4h-6.8v-3.4H24.7z M22.1,35.5h-0.6h-0.9l-5.8,9.8h-2.3v-2.6c0.4-0.6,5.9-10.1,6.7-11.4h2.8V35.5z
			 M48.4,35.5h-0.5h-0.9H45h-1.6v5.2h3.1v-2.1h0.4h0.9h0.5v4.4H41v11.5H30.3V43.1h-7.4v-4.4h0.5h0.9h0.4v2.1h3.1v-5.2h-1.5h-1.9
			h-0.9h-0.5c0-1.6,0-3.1,0-4.1h1.8v2.1h3.1V30c1.4,0,2.5,0,2.5,0v-4.7h5.3H41V30h2.5v3.5h3.1v-2.1h1.8L48.4,35.5L48.4,35.5
			L48.4,35.5z M53.3,51.9h-6.8v-3.4h6.8V51.9z M58.7,45.4h-2.3l-5.8-9.8h-0.9h-0.6v-4.1H52c0.8,1.3,6.3,10.8,6.7,11.4
			C58.7,42.8,58.7,45.4,58.7,45.4z"/>
		<path class="st1" d="M36,9.2c-19.8,0-36,16.1-36,36c0,19.8,16.1,36,36,36c19.8,0,36-16.1,36-36C71.9,25.3,55.8,9.2,36,9.2z M36,79
			C17.3,79,2.1,63.8,2.1,45.2c0-18.6,15.2-33.8,33.8-33.8c18.6,0,33.8,15.2,33.8,33.8C69.8,63.8,54.6,79,36,79z"/>
	</g>
</g>
</svg>
