<?xml version="1.0" encoding="utf-8"?>
<!-- Generator: Adobe Illustrator 27.0.0, SVG Export Plug-In . SVG Version: 6.00 Build 0)  -->
<svg version="1.1" id="Layer_1" xmlns="http://www.w3.org/2000/svg" xmlns:xlink="http://www.w3.org/1999/xlink" x="0px" y="0px"
	 viewBox="0 0 179.9 198.4" style="enable-background:new 0 0 179.9 198.4;" xml:space="preserve">
<style type="text/css">
	.st0{fill:#FFFFFF;}
	.st1{fill:#9E9E9E;}
	.st2{fill:#E2E2E2;}
	.st3{fill:#D0D2D3;}
</style>
<circle class="st0" cx="90.2" cy="117" r="34"/>
<g>
	<g>
		<path class="st1" d="M7.5,146.1l1.3,1.7L6,149.9l2.5,3.2l2.8-2.2l1.3,1.7l-7.5,5.8l-1.3-1.7l3.3-2.5l-2.5-3.2l-3.3,2.5L0,151.9
			L7.5,146.1z"/>
	</g>
	<g>
		<path class="st1" d="M17.9,161.6c0-0.3,0-0.6-0.1-0.8c-0.1-0.3-0.3-0.5-0.5-0.7c-0.1-0.1-0.2-0.2-0.4-0.3
			c-0.1-0.1-0.3-0.2-0.4-0.2c-0.2,0-0.3-0.1-0.5,0c-0.2,0-0.3,0.1-0.4,0.2c-0.2,0.2-0.3,0.4-0.2,0.7c0,0.3,0.1,0.5,0.3,0.9
			c0.2,0.3,0.3,0.6,0.5,1c0.2,0.3,0.3,0.7,0.4,1.1c0.1,0.4,0.1,0.8,0,1.1c-0.1,0.4-0.3,0.8-0.7,1.2c-0.4,0.4-0.8,0.6-1.2,0.8
			s-0.8,0.2-1.3,0.1c-0.4-0.1-0.8-0.2-1.2-0.4c-0.4-0.2-0.8-0.5-1.1-0.9c-0.4-0.4-0.8-0.9-1-1.4c-0.2-0.5-0.4-1.1-0.4-1.7l2.2-0.1
			c-0.1,0.4,0,0.7,0.1,1c0.1,0.3,0.3,0.6,0.5,0.9c0.1,0.1,0.3,0.2,0.4,0.3c0.2,0.1,0.3,0.2,0.5,0.2c0.2,0,0.3,0,0.5,0
			c0.1,0,0.3-0.1,0.4-0.2c0.2-0.2,0.3-0.4,0.3-0.7c0-0.3-0.1-0.6-0.3-0.9c-0.2-0.3-0.3-0.7-0.5-1c-0.2-0.4-0.3-0.7-0.4-1.1
			c-0.1-0.4-0.1-0.8,0-1.1c0.1-0.4,0.3-0.8,0.7-1.1c0.4-0.4,0.8-0.6,1.2-0.7c0.4-0.1,0.8-0.2,1.3-0.1c0.4,0.1,0.8,0.2,1.2,0.4
			c0.4,0.2,0.8,0.5,1.1,0.8c0.4,0.4,0.7,0.8,0.9,1.3c0.2,0.5,0.4,1,0.4,1.5L17.9,161.6z"/>
	</g>
	<g>
		<path class="st1" d="M23.4,163.7l1.9,1.5l-2.1,6.4l0,0l5.8-3.4l1.8,1.4l-9,5l-1.3-1.1L23.4,163.7z"/>
	</g>
	<g>
		<path class="st1" d="M40.8,175.9l2.8,1.4c0.7,0.3,1.3,0.7,1.8,1.2c0.5,0.5,0.9,1,1.2,1.6c0.3,0.6,0.4,1.2,0.4,1.9
			c0,0.7-0.2,1.4-0.6,2.2c-0.3,0.7-0.8,1.2-1.3,1.6s-1.1,0.7-1.7,0.8c-0.6,0.1-1.3,0.1-1.9,0c-0.7-0.1-1.3-0.3-2-0.6l-3.1-1.6
			L40.8,175.9z M39.3,183.7l1,0.5c0.4,0.2,0.9,0.4,1.3,0.5c0.4,0.1,0.8,0.1,1.2,0.1c0.4-0.1,0.7-0.2,1.1-0.5
			c0.3-0.3,0.6-0.6,0.9-1.1c0.2-0.4,0.3-0.8,0.3-1.2c0-0.4-0.1-0.7-0.2-1.1c-0.2-0.3-0.4-0.6-0.7-0.9c-0.3-0.3-0.7-0.5-1-0.7
			l-1.1-0.6L39.3,183.7z"/>
	</g>
	<g>
		<path class="st1" d="M53.2,181.7l6.1,2.2l-0.7,1.8l-4.1-1.5l-0.6,1.7l3.9,1.4l-0.7,1.8l-3.9-1.4l-0.7,1.8l4.4,1.6l-0.7,1.8
			l-6.3-2.3L53.2,181.7z"/>
	</g>
	<g>
		<path class="st1" d="M70.1,194.5l5.6-5l-4.6-0.7l0.3-1.8l7.1,1.1l-0.3,1.8l-5.5,5l4.9,0.7l-0.3,1.9l-7.5-1.1L70.1,194.5z"/>
	</g>
	<g>
		<path class="st1" d="M91.3,194.6c0,0.6-0.1,1.1-0.3,1.6c-0.2,0.5-0.4,0.9-0.8,1.2c-0.3,0.3-0.8,0.6-1.3,0.8
			c-0.5,0.2-1.1,0.3-1.7,0.3c-0.7,0-1.2-0.1-1.7-0.3c-0.5-0.2-0.9-0.5-1.2-0.9c-0.3-0.4-0.6-0.8-0.7-1.3c-0.2-0.5-0.2-1-0.2-1.6
			l0.2-5.9l2.1,0.1l-0.2,5.8c0,0.3,0,0.6,0.1,0.8c0.1,0.3,0.2,0.5,0.4,0.7c0.2,0.2,0.4,0.3,0.6,0.4c0.2,0.1,0.5,0.2,0.8,0.2
			c0.3,0,0.5,0,0.8-0.1c0.2-0.1,0.4-0.2,0.6-0.4c0.2-0.2,0.3-0.4,0.4-0.6c0.1-0.2,0.2-0.5,0.2-0.8l0.2-5.8l2.1,0.1L91.3,194.6z"/>
	</g>
	<g>
		<path class="st1" d="M96.9,188.4l2.1-0.2l0.7,9.5l-2.1,0.2L96.9,188.4z"/>
	</g>
	<g>
		<path class="st1" d="M104.3,187.8l3.1-0.6c0.8-0.1,1.5-0.2,2.2-0.1c0.7,0,1.3,0.2,1.9,0.5c0.6,0.3,1.1,0.7,1.5,1.2
			c0.4,0.5,0.7,1.3,0.8,2.1c0.1,0.8,0.1,1.5-0.1,2.1c-0.2,0.6-0.5,1.2-0.9,1.7c-0.4,0.5-0.9,0.9-1.5,1.2c-0.6,0.3-1.2,0.5-1.9,0.7
			l-3.4,0.6L104.3,187.8z M107.7,194.9l1.1-0.2c0.5-0.1,0.9-0.2,1.3-0.4s0.7-0.4,1-0.7c0.3-0.3,0.4-0.6,0.5-1c0.1-0.4,0.1-0.9,0-1.4
			c-0.1-0.5-0.2-0.8-0.5-1.2c-0.2-0.3-0.5-0.5-0.8-0.7s-0.7-0.3-1.1-0.3c-0.4,0-0.8,0-1.3,0.1l-1.2,0.2L107.7,194.9z"/>
	</g>
	<g>
		<path class="st1" d="M116.7,185.3l2.3-0.7l4.2,5.2l0,0l0.4-6.7l2.1-0.7l-0.8,10.3l-1.6,0.5L116.7,185.3z"/>
	</g>
	<g>
		<path class="st1" d="M131.2,185.3c-0.3-0.7-0.5-1.4-0.5-2c0-0.7,0.1-1.3,0.3-1.9c0.2-0.6,0.6-1.1,1-1.6c0.5-0.5,1-0.9,1.7-1.2
			c0.7-0.3,1.3-0.5,2-0.6c0.7-0.1,1.3,0,1.9,0.2c0.6,0.2,1.2,0.5,1.7,1c0.5,0.4,0.9,1,1.2,1.7c0.3,0.7,0.5,1.4,0.5,2
			c0,0.7-0.1,1.3-0.3,1.9c-0.2,0.6-0.6,1.1-1,1.6c-0.5,0.5-1,0.9-1.7,1.2c-0.7,0.3-1.3,0.5-2,0.6c-0.7,0.1-1.3,0-1.9-0.2
			c-0.6-0.2-1.2-0.5-1.7-1C132,186.6,131.6,186,131.2,185.3z M133.2,184.4c0.2,0.4,0.4,0.7,0.7,1c0.3,0.3,0.6,0.5,1,0.6
			c0.4,0.1,0.7,0.2,1.1,0.2c0.4,0,0.8-0.1,1.2-0.3c0.4-0.2,0.7-0.4,1-0.7c0.3-0.3,0.5-0.6,0.6-1c0.1-0.4,0.2-0.7,0.1-1.1
			c0-0.4-0.1-0.8-0.3-1.2c-0.2-0.4-0.4-0.7-0.7-1c-0.3-0.3-0.6-0.5-1-0.6c-0.4-0.1-0.7-0.2-1.1-0.2c-0.4,0-0.8,0.1-1.2,0.3
			c-0.4,0.2-0.7,0.4-1,0.7c-0.3,0.3-0.5,0.6-0.6,1c-0.1,0.4-0.2,0.7-0.1,1.1C132.9,183.6,133,184,133.2,184.4z"/>
	</g>
	<g>
		<path class="st1" d="M154.7,176.8c-0.3,0.6-0.7,1.2-1.2,1.7c-0.5,0.5-1,0.9-1.6,1.3c-0.6,0.4-1.3,0.7-1.9,0.9
			c-0.7,0.2-1.3,0.2-1.9,0.1c-0.6-0.1-1.2-0.4-1.8-0.7c-0.6-0.4-1-0.9-1.5-1.5c-0.4-0.6-0.7-1.3-0.8-1.9c-0.1-0.7-0.1-1.3,0-1.9
			c0.1-0.6,0.4-1.2,0.8-1.7s0.9-1,1.5-1.4c0.6-0.4,1.3-0.7,1.9-0.9c0.6-0.2,1.3-0.3,1.9-0.1l-0.3,2.2c-0.4-0.1-0.8-0.1-1.2,0
			c-0.4,0.1-0.8,0.3-1.3,0.6c-0.4,0.2-0.7,0.5-0.9,0.9c-0.2,0.3-0.4,0.7-0.4,1.1c-0.1,0.4-0.1,0.8,0,1.1c0.1,0.4,0.3,0.8,0.5,1.1
			c0.2,0.4,0.5,0.7,0.9,0.9c0.3,0.2,0.7,0.4,1,0.5c0.4,0.1,0.7,0.1,1.1,0c0.4-0.1,0.8-0.2,1.1-0.5c0.4-0.3,0.7-0.5,0.9-0.8
			c0.2-0.3,0.4-0.5,0.5-0.7l-0.9-1.3l-1.4,0.9l-1.1-1.6l3.1-2.1L154.7,176.8z"/>
	</g>
	<g>
		<path class="st1" d="M153.9,166.2l4.9-4.2l1.3,1.5l-3.3,2.9l1.2,1.3l3.1-2.7l1.3,1.5l-3.1,2.7l1.3,1.5l3.5-3l1.3,1.5l-5.1,4.4
			L153.9,166.2z"/>
	</g>
	<g>
		<path class="st1" d="M162.7,158.1l1.4-1.5l5.6,5.2l2.7-2.9l1.4,1.3l-4.1,4.4L162.7,158.1z"/>
	</g>
	<g>
		<path class="st1" d="M174.4,147.8c-0.3,0-0.5,0.1-0.8,0.3c-0.3,0.2-0.5,0.4-0.6,0.6c-0.1,0.1-0.2,0.3-0.2,0.4
			c-0.1,0.2-0.1,0.3-0.1,0.5c0,0.2,0,0.3,0,0.5c0,0.1,0.1,0.3,0.3,0.4c0.2,0.2,0.5,0.2,0.7,0.1c0.3-0.1,0.5-0.2,0.8-0.4
			c0.3-0.2,0.6-0.4,0.9-0.7c0.3-0.2,0.6-0.4,1-0.6c0.4-0.1,0.7-0.2,1.1-0.2c0.4,0,0.8,0.2,1.3,0.5c0.4,0.3,0.7,0.7,0.9,1.1
			c0.2,0.4,0.3,0.8,0.3,1.2c0,0.4-0.1,0.9-0.2,1.3c-0.2,0.4-0.4,0.8-0.7,1.2c-0.4,0.5-0.8,0.9-1.3,1.2c-0.5,0.3-1,0.5-1.6,0.6
			l-0.4-2.2c0.4,0,0.7-0.1,1-0.3c0.3-0.2,0.6-0.4,0.8-0.7c0.1-0.1,0.2-0.3,0.3-0.5c0.1-0.2,0.1-0.3,0.1-0.5c0-0.2,0-0.3,0-0.5
			c0-0.1-0.1-0.3-0.3-0.4c-0.2-0.2-0.5-0.2-0.7-0.1c-0.3,0.1-0.5,0.2-0.8,0.4c-0.3,0.2-0.6,0.4-0.9,0.7c-0.3,0.2-0.7,0.4-1,0.6
			c-0.4,0.1-0.7,0.2-1.1,0.2c-0.4,0-0.8-0.2-1.2-0.5c-0.4-0.3-0.7-0.7-0.9-1c-0.2-0.4-0.3-0.8-0.3-1.2c0-0.4,0.1-0.9,0.2-1.3
			c0.2-0.4,0.4-0.8,0.7-1.2c0.3-0.4,0.7-0.8,1.1-1.1c0.4-0.3,0.9-0.5,1.4-0.6L174.4,147.8z"/>
	</g>
</g>
<g>
	<g>
		<polygon class="st1" points="77.2,114.1 82.2,129.4 98.2,129.4 103.1,114.1 90.2,104.7 		"/>
	</g>
	<g>
		<path class="st1" d="M90.2,80.4C70,80.4,53.5,96.8,53.5,117s16.4,36.7,36.7,36.7c20.2,0,36.7-16.4,36.7-36.7
			C126.8,96.8,110.4,80.4,90.2,80.4z M103.4,136.7l-3.2,9.5c-3.2,1.1-6.5,1.7-10.1,1.7c-3.6,0-7-0.6-10.2-1.8l-3.2-9.5l-10.4,0.1
			c-4.5-5.3-7.2-12.2-7.2-19.7l8.1-5.9l-3.4-10.6c3.8-6.1,9.7-10.7,16.7-13l9.4,6.9l9.4-6.9c7,2.3,12.9,6.9,16.7,13.1l-3.4,10.5
			l8.1,5.8c0,0,0,0,0,0c0,7.5-2.7,14.4-7.2,19.7L103.4,136.7z"/>
	</g>
</g>
<g>
	<g>
		<path class="st2" d="M174.8,116.8c3.2-9.1,5-18.8,5-29c0-13.7-3.1-26.6-8.7-38.1l-13.2,11l9.5-17.8c-8.1-13.5-19.7-24.6-33.5-32.1
			L127,30.7V7.6C116.4,3,104.7,0,92.5,0l7.7,75.7c19,4.4,33.2,21.4,33.2,41.7s-14.2,37.3-33.2,41.7v15.7
			c15.4-1.3,29.6-6.7,41.6-14.9v-9.2l4.4,5.9c11.2-8.8,20.2-20.2,26.1-33.4l-9.9-6.2C162.9,116.5,170.3,116.6,174.8,116.8z"/>
	</g>
</g>
<g>
	<g>
		<path class="st2" d="M5.5,116.8c-3.2-9.1-5-18.8-5-29c0-13.7,3.1-26.6,8.7-38.1l13.2,11L12.9,43C21,29.5,32.6,18.4,46.5,10.9
			l6.9,19.7V7.6C64,3,75.6,0,87.9,0l-7.7,75.7C61.2,80.1,47,97.1,47,117.4s14.2,37.3,33.2,41.7v15.7c-15.4-1.3-29.6-6.7-41.6-14.9
			v-9.2l-4.4,5.9c-11.2-8.8-20.2-20.2-26.1-33.4L18,117C17.4,116.5,10.1,116.6,5.5,116.8z"/>
	</g>
</g>
<g>
	<path class="st1" d="M80.2,75.7l2.9-28.3c-28,3.4-49.6,27.2-49.6,56.1c0,27.9,20.2,51,46.7,55.7v-0.1c-19-4.4-33.2-21.4-33.2-41.7
		S61.2,80.1,80.2,75.7z"/>
</g>
<g>
	<path class="st1" d="M97.3,47.5l2.9,28.2c19,4.4,33.2,21.4,33.2,41.7c0,20.2-14.1,37.2-33,41.7c26.3-4.8,46.2-27.9,46.2-55.6
		C146.5,74.8,125,51.1,97.3,47.5z"/>
</g>
<g>
	<path class="st3" d="M99.6,87.7l-4.4,3.2c8.6,1.6,15.8,7.3,19.4,15l1.6-5.1C112.5,94.6,106.6,89.9,99.6,87.7z"/>
	<path class="st3" d="M85.1,90.8l-4.4-3.2c-7,2.2-12.8,6.9-16.7,13l1.6,5.1C69.4,98.1,76.5,92.5,85.1,90.8z"/>
	<path class="st3" d="M59.3,117.1c0,7.5,2.7,14.3,7.2,19.7l4.4,0C66,131.8,63,125,63,117.6c0-1.1,0.1-2.2,0.2-3.3L59.3,117.1z"/>
	<path class="st3" d="M121,117C121,117,121,117,121,117l-3.9-2.8c0.1,1.1,0.2,2.2,0.2,3.3c0,7.5-3,14.3-7.9,19.2l4.4,0
		C118.3,131.4,121,124.5,121,117z"/>
	<path class="st3" d="M90.2,147.9c3.5,0,6.9-0.6,10.1-1.7l1.3-4c-3.5,1.6-7.3,2.5-11.4,2.5c-4.1,0-8-0.9-11.5-2.6l1.3,4
		C83.2,147.3,86.6,147.9,90.2,147.9z"/>
</g>
</svg>
